<?xml version="1.0" encoding="UTF-8"?>
<svg xmlns="http://www.w3.org/2000/svg"
     xmlns:xlink="http://www.w3.org/1999/xlink"
     xmlns:gadfly="http://www.gadflyjl.org/ns"
     version="1.2"
     width="203.2mm" height="203.2mm" viewBox="0 0 203.2 203.2"
     stroke="none"
     fill="#000000"
     stroke-width="0.3"
     font-size="3.88"
>
<g fill="#000000" id="fig-65c9cb9412214c6c9e4ffd5be0c3d5f0-element-1">
  <rect x="190.5" y="190.5" width="12.7" height="12.7"/>
  <rect x="177.8" y="177.8" width="12.7" height="12.7"/>
  <rect x="165.1" y="190.5" width="12.7" height="12.7"/>
  <rect x="152.4" y="177.8" width="12.7" height="12.7"/>
  <rect x="190.5" y="165.1" width="12.7" height="12.7"/>
  <rect x="177.8" y="152.4" width="12.7" height="12.7"/>
  <rect x="165.1" y="165.1" width="12.7" height="12.7"/>
  <rect x="152.4" y="152.4" width="12.7" height="12.7"/>
  <rect x="139.7" y="190.5" width="12.7" height="12.7"/>
  <rect x="127" y="177.8" width="12.7" height="12.7"/>
  <rect x="114.3" y="190.5" width="12.7" height="12.7"/>
  <rect x="101.6" y="177.8" width="12.7" height="12.7"/>
  <rect x="139.7" y="165.1" width="12.7" height="12.7"/>
  <rect x="127" y="152.4" width="12.7" height="12.7"/>
  <rect x="114.3" y="165.1" width="12.7" height="12.7"/>
  <rect x="101.6" y="152.4" width="12.7" height="12.7"/>
  <rect x="190.5" y="139.7" width="12.7" height="12.7"/>
  <rect x="177.8" y="127" width="12.7" height="12.7"/>
  <rect x="165.1" y="139.7" width="12.7" height="12.7"/>
  <rect x="152.4" y="127" width="12.7" height="12.7"/>
  <rect x="190.5" y="114.3" width="12.7" height="12.7"/>
  <rect x="177.8" y="101.6" width="12.7" height="12.7"/>
  <rect x="165.1" y="114.3" width="12.7" height="12.7"/>
  <rect x="152.4" y="101.6" width="12.7" height="12.7"/>
  <rect x="139.7" y="139.7" width="12.7" height="12.7"/>
  <rect x="127" y="127" width="12.7" height="12.7"/>
  <rect x="114.3" y="139.7" width="12.7" height="12.7"/>
  <rect x="101.6" y="127" width="12.7" height="12.7"/>
  <rect x="139.7" y="114.3" width="12.7" height="12.7"/>
  <rect x="127" y="101.6" width="12.7" height="12.7"/>
  <rect x="114.3" y="114.3" width="12.7" height="12.7"/>
  <rect x="101.6" y="101.6" width="12.7" height="12.7"/>
  <rect x="88.9" y="190.5" width="12.7" height="12.7"/>
  <rect x="76.2" y="177.8" width="12.7" height="12.7"/>
  <rect x="63.5" y="190.5" width="12.7" height="12.7"/>
  <rect x="50.8" y="177.8" width="12.7" height="12.7"/>
  <rect x="88.9" y="165.1" width="12.7" height="12.7"/>
  <rect x="76.2" y="152.4" width="12.7" height="12.7"/>
  <rect x="63.5" y="165.1" width="12.7" height="12.7"/>
  <rect x="50.8" y="152.4" width="12.7" height="12.7"/>
  <rect x="38.1" y="190.5" width="12.7" height="12.7"/>
  <rect x="25.4" y="177.8" width="12.7" height="12.7"/>
  <rect x="12.7" y="190.5" width="12.7" height="12.7"/>
  <rect x="0" y="177.8" width="12.7" height="12.7"/>
  <rect x="38.1" y="165.1" width="12.7" height="12.7"/>
  <rect x="25.4" y="152.4" width="12.7" height="12.7"/>
  <rect x="12.7" y="165.1" width="12.7" height="12.7"/>
  <rect x="0" y="152.4" width="12.7" height="12.7"/>
  <rect x="88.9" y="139.7" width="12.7" height="12.7"/>
  <rect x="76.2" y="127" width="12.7" height="12.7"/>
  <rect x="63.5" y="139.7" width="12.7" height="12.7"/>
  <rect x="50.8" y="127" width="12.7" height="12.7"/>
  <rect x="88.9" y="114.3" width="12.7" height="12.7"/>
  <rect x="76.2" y="101.6" width="12.7" height="12.7"/>
  <rect x="63.5" y="114.3" width="12.7" height="12.7"/>
  <rect x="50.8" y="101.6" width="12.7" height="12.7"/>
  <rect x="38.1" y="139.7" width="12.7" height="12.7"/>
  <rect x="25.4" y="127" width="12.7" height="12.7"/>
  <rect x="12.7" y="139.7" width="12.7" height="12.7"/>
  <rect x="0" y="127" width="12.7" height="12.7"/>
  <rect x="38.1" y="114.3" width="12.7" height="12.7"/>
  <rect x="25.4" y="101.6" width="12.7" height="12.7"/>
  <rect x="12.7" y="114.3" width="12.7" height="12.7"/>
  <rect x="0" y="101.6" width="12.7" height="12.7"/>
  <rect x="190.5" y="88.9" width="12.7" height="12.7"/>
  <rect x="177.8" y="76.2" width="12.7" height="12.7"/>
  <rect x="165.1" y="88.9" width="12.7" height="12.7"/>
  <rect x="152.4" y="76.2" width="12.7" height="12.7"/>
  <rect x="190.5" y="63.5" width="12.7" height="12.7"/>
  <rect x="177.8" y="50.8" width="12.7" height="12.7"/>
  <rect x="165.1" y="63.5" width="12.7" height="12.7"/>
  <rect x="152.4" y="50.8" width="12.7" height="12.7"/>
  <rect x="139.7" y="88.9" width="12.7" height="12.7"/>
  <rect x="127" y="76.2" width="12.7" height="12.7"/>
  <rect x="114.3" y="88.9" width="12.7" height="12.7"/>
  <rect x="101.6" y="76.2" width="12.7" height="12.7"/>
  <rect x="139.7" y="63.5" width="12.7" height="12.7"/>
  <rect x="127" y="50.8" width="12.7" height="12.7"/>
  <rect x="114.3" y="63.5" width="12.7" height="12.7"/>
  <rect x="101.6" y="50.8" width="12.7" height="12.7"/>
  <rect x="190.5" y="38.1" width="12.7" height="12.7"/>
  <rect x="177.8" y="25.4" width="12.7" height="12.7"/>
  <rect x="165.1" y="38.1" width="12.7" height="12.7"/>
  <rect x="152.4" y="25.4" width="12.7" height="12.7"/>
  <rect x="190.5" y="12.7" width="12.7" height="12.7"/>
  <rect x="177.8" y="0" width="12.7" height="12.7"/>
  <rect x="165.1" y="12.7" width="12.7" height="12.7"/>
  <rect x="152.4" y="0" width="12.7" height="12.7"/>
  <rect x="139.7" y="38.1" width="12.7" height="12.7"/>
  <rect x="127" y="25.4" width="12.7" height="12.7"/>
  <rect x="114.3" y="38.1" width="12.7" height="12.7"/>
  <rect x="101.6" y="25.4" width="12.7" height="12.7"/>
  <rect x="139.7" y="12.7" width="12.7" height="12.7"/>
  <rect x="127" y="0" width="12.7" height="12.7"/>
  <rect x="114.3" y="12.7" width="12.7" height="12.7"/>
  <rect x="101.6" y="0" width="12.7" height="12.7"/>
  <rect x="88.9" y="88.9" width="12.7" height="12.7"/>
  <rect x="76.2" y="76.2" width="12.7" height="12.7"/>
  <rect x="63.5" y="88.9" width="12.7" height="12.7"/>
  <rect x="50.8" y="76.2" width="12.7" height="12.7"/>
  <rect x="88.9" y="63.5" width="12.7" height="12.7"/>
  <rect x="76.2" y="50.8" width="12.7" height="12.7"/>
  <rect x="63.5" y="63.5" width="12.7" height="12.7"/>
  <rect x="50.8" y="50.8" width="12.7" height="12.7"/>
  <rect x="38.1" y="88.9" width="12.7" height="12.7"/>
  <rect x="25.4" y="76.2" width="12.7" height="12.7"/>
  <rect x="12.7" y="88.9" width="12.7" height="12.7"/>
  <rect x="0" y="76.2" width="12.7" height="12.7"/>
  <rect x="38.1" y="63.5" width="12.7" height="12.7"/>
  <rect x="25.4" y="50.8" width="12.7" height="12.7"/>
  <rect x="12.7" y="63.5" width="12.7" height="12.7"/>
  <rect x="0" y="50.8" width="12.7" height="12.7"/>
  <rect x="88.9" y="38.1" width="12.7" height="12.7"/>
  <rect x="76.2" y="25.4" width="12.7" height="12.7"/>
  <rect x="63.5" y="38.1" width="12.7" height="12.7"/>
  <rect x="50.8" y="25.4" width="12.7" height="12.7"/>
  <rect x="88.9" y="12.7" width="12.7" height="12.7"/>
  <rect x="76.2" y="0" width="12.7" height="12.7"/>
  <rect x="63.5" y="12.7" width="12.7" height="12.7"/>
  <rect x="50.8" y="0" width="12.7" height="12.7"/>
  <rect x="38.1" y="38.1" width="12.7" height="12.7"/>
  <rect x="25.4" y="25.4" width="12.7" height="12.7"/>
  <rect x="12.7" y="38.1" width="12.7" height="12.7"/>
  <rect x="0" y="25.4" width="12.7" height="12.7"/>
  <rect x="38.1" y="12.7" width="12.7" height="12.7"/>
  <rect x="25.4" y="0" width="12.7" height="12.7"/>
  <rect x="12.7" y="12.7" width="12.7" height="12.7"/>
  <rect x="0" y="0" width="12.7" height="12.7"/>
</g>
</svg>
