<?xml version="1.0" encoding="UTF-8"?>
<svg xmlns="http://www.w3.org/2000/svg"
     xmlns:xlink="http://www.w3.org/1999/xlink"
     xmlns:gadfly="http://www.gadflyjl.org/ns"
     version="1.2"
     width="203.2mm" height="203.2mm" viewBox="0 0 203.2 203.2"
     stroke="none"
     fill="#000000"
     stroke-width="0.3"
     font-size="3.88"
>
<g fill="#000000" id="fig-46ed274806644a7c8a141ca1061c9572-element-1">
  <rect x="196.85" y="196.85" width="6.35" height="6.35"/>
  <rect x="190.5" y="190.5" width="6.35" height="6.35"/>
  <rect x="184.15" y="196.85" width="6.35" height="6.35"/>
  <rect x="177.8" y="190.5" width="6.35" height="6.35"/>
  <rect x="196.85" y="184.15" width="6.35" height="6.35"/>
  <rect x="190.5" y="177.8" width="6.35" height="6.35"/>
  <rect x="184.15" y="184.15" width="6.35" height="6.35"/>
  <rect x="177.8" y="177.8" width="6.35" height="6.35"/>
  <rect x="171.45" y="196.85" width="6.35" height="6.35"/>
  <rect x="165.1" y="190.5" width="6.35" height="6.35"/>
  <rect x="158.75" y="196.85" width="6.35" height="6.35"/>
  <rect x="152.4" y="190.5" width="6.35" height="6.35"/>
  <rect x="171.45" y="184.15" width="6.35" height="6.35"/>
  <rect x="165.1" y="177.8" width="6.35" height="6.35"/>
  <rect x="158.75" y="184.15" width="6.35" height="6.35"/>
  <rect x="152.4" y="177.8" width="6.35" height="6.35"/>
  <rect x="196.85" y="171.45" width="6.35" height="6.35"/>
  <rect x="190.5" y="165.1" width="6.35" height="6.35"/>
  <rect x="184.15" y="171.45" width="6.35" height="6.35"/>
  <rect x="177.8" y="165.1" width="6.35" height="6.35"/>
  <rect x="196.85" y="158.75" width="6.35" height="6.35"/>
  <rect x="190.5" y="152.4" width="6.35" height="6.35"/>
  <rect x="184.15" y="158.75" width="6.35" height="6.35"/>
  <rect x="177.8" y="152.4" width="6.35" height="6.35"/>
  <rect x="171.45" y="171.45" width="6.35" height="6.35"/>
  <rect x="165.1" y="165.1" width="6.35" height="6.35"/>
  <rect x="158.75" y="171.45" width="6.35" height="6.35"/>
  <rect x="152.4" y="165.1" width="6.35" height="6.35"/>
  <rect x="171.45" y="158.75" width="6.35" height="6.35"/>
  <rect x="165.1" y="152.4" width="6.35" height="6.35"/>
  <rect x="158.75" y="158.75" width="6.35" height="6.35"/>
  <rect x="152.4" y="152.4" width="6.35" height="6.35"/>
  <rect x="146.05" y="196.85" width="6.35" height="6.35"/>
  <rect x="139.7" y="190.5" width="6.35" height="6.35"/>
  <rect x="133.35" y="196.85" width="6.35" height="6.35"/>
  <rect x="127" y="190.5" width="6.35" height="6.35"/>
  <rect x="146.05" y="184.15" width="6.35" height="6.35"/>
  <rect x="139.7" y="177.8" width="6.35" height="6.35"/>
  <rect x="133.35" y="184.15" width="6.35" height="6.35"/>
  <rect x="127" y="177.8" width="6.35" height="6.35"/>
  <rect x="120.65" y="196.85" width="6.35" height="6.35"/>
  <rect x="114.3" y="190.5" width="6.35" height="6.35"/>
  <rect x="107.95" y="196.85" width="6.35" height="6.35"/>
  <rect x="101.6" y="190.5" width="6.35" height="6.35"/>
  <rect x="120.65" y="184.15" width="6.35" height="6.35"/>
  <rect x="114.3" y="177.8" width="6.35" height="6.35"/>
  <rect x="107.95" y="184.15" width="6.35" height="6.35"/>
  <rect x="101.6" y="177.8" width="6.35" height="6.35"/>
  <rect x="146.05" y="171.45" width="6.35" height="6.35"/>
  <rect x="139.7" y="165.1" width="6.35" height="6.35"/>
  <rect x="133.35" y="171.45" width="6.35" height="6.35"/>
  <rect x="127" y="165.1" width="6.35" height="6.35"/>
  <rect x="146.05" y="158.75" width="6.35" height="6.35"/>
  <rect x="139.7" y="152.4" width="6.35" height="6.35"/>
  <rect x="133.35" y="158.75" width="6.35" height="6.35"/>
  <rect x="127" y="152.4" width="6.35" height="6.35"/>
  <rect x="120.65" y="171.45" width="6.35" height="6.35"/>
  <rect x="114.3" y="165.1" width="6.35" height="6.35"/>
  <rect x="107.95" y="171.45" width="6.35" height="6.35"/>
  <rect x="101.6" y="165.1" width="6.35" height="6.35"/>
  <rect x="120.65" y="158.75" width="6.35" height="6.35"/>
  <rect x="114.3" y="152.4" width="6.35" height="6.35"/>
  <rect x="107.95" y="158.75" width="6.35" height="6.35"/>
  <rect x="101.6" y="152.4" width="6.35" height="6.35"/>
  <rect x="196.85" y="146.05" width="6.35" height="6.35"/>
  <rect x="190.5" y="139.7" width="6.35" height="6.35"/>
  <rect x="184.15" y="146.05" width="6.35" height="6.35"/>
  <rect x="177.8" y="139.7" width="6.35" height="6.35"/>
  <rect x="196.85" y="133.35" width="6.35" height="6.35"/>
  <rect x="190.5" y="127" width="6.35" height="6.35"/>
  <rect x="184.15" y="133.35" width="6.35" height="6.35"/>
  <rect x="177.8" y="127" width="6.35" height="6.35"/>
  <rect x="171.45" y="146.05" width="6.35" height="6.35"/>
  <rect x="165.1" y="139.7" width="6.35" height="6.35"/>
  <rect x="158.75" y="146.05" width="6.35" height="6.35"/>
  <rect x="152.4" y="139.7" width="6.35" height="6.35"/>
  <rect x="171.45" y="133.35" width="6.35" height="6.35"/>
  <rect x="165.1" y="127" width="6.35" height="6.35"/>
  <rect x="158.75" y="133.35" width="6.35" height="6.35"/>
  <rect x="152.4" y="127" width="6.35" height="6.35"/>
  <rect x="196.85" y="120.65" width="6.35" height="6.35"/>
  <rect x="190.5" y="114.3" width="6.35" height="6.35"/>
  <rect x="184.15" y="120.65" width="6.35" height="6.35"/>
  <rect x="177.8" y="114.3" width="6.35" height="6.35"/>
  <rect x="196.85" y="107.95" width="6.35" height="6.35"/>
  <rect x="190.5" y="101.6" width="6.35" height="6.35"/>
  <rect x="184.15" y="107.95" width="6.35" height="6.35"/>
  <rect x="177.8" y="101.6" width="6.35" height="6.35"/>
  <rect x="171.45" y="120.65" width="6.35" height="6.35"/>
  <rect x="165.1" y="114.3" width="6.35" height="6.35"/>
  <rect x="158.75" y="120.65" width="6.35" height="6.35"/>
  <rect x="152.4" y="114.3" width="6.35" height="6.35"/>
  <rect x="171.45" y="107.95" width="6.35" height="6.35"/>
  <rect x="165.1" y="101.6" width="6.35" height="6.35"/>
  <rect x="158.75" y="107.95" width="6.35" height="6.35"/>
  <rect x="152.4" y="101.6" width="6.35" height="6.35"/>
  <rect x="146.05" y="146.05" width="6.35" height="6.35"/>
  <rect x="139.7" y="139.7" width="6.35" height="6.35"/>
  <rect x="133.35" y="146.05" width="6.35" height="6.35"/>
  <rect x="127" y="139.7" width="6.35" height="6.35"/>
  <rect x="146.05" y="133.35" width="6.35" height="6.35"/>
  <rect x="139.7" y="127" width="6.35" height="6.35"/>
  <rect x="133.35" y="133.35" width="6.35" height="6.35"/>
  <rect x="127" y="127" width="6.35" height="6.35"/>
  <rect x="120.65" y="146.05" width="6.35" height="6.35"/>
  <rect x="114.3" y="139.7" width="6.35" height="6.35"/>
  <rect x="107.95" y="146.05" width="6.35" height="6.35"/>
  <rect x="101.6" y="139.7" width="6.35" height="6.35"/>
  <rect x="120.65" y="133.35" width="6.35" height="6.35"/>
  <rect x="114.3" y="127" width="6.35" height="6.35"/>
  <rect x="107.95" y="133.35" width="6.35" height="6.35"/>
  <rect x="101.6" y="127" width="6.35" height="6.35"/>
  <rect x="146.05" y="120.65" width="6.35" height="6.35"/>
  <rect x="139.7" y="114.3" width="6.35" height="6.35"/>
  <rect x="133.35" y="120.65" width="6.35" height="6.35"/>
  <rect x="127" y="114.3" width="6.35" height="6.35"/>
  <rect x="146.05" y="107.95" width="6.35" height="6.35"/>
  <rect x="139.7" y="101.6" width="6.35" height="6.35"/>
  <rect x="133.35" y="107.95" width="6.35" height="6.35"/>
  <rect x="127" y="101.6" width="6.35" height="6.35"/>
  <rect x="120.65" y="120.65" width="6.35" height="6.35"/>
  <rect x="114.3" y="114.3" width="6.35" height="6.35"/>
  <rect x="107.95" y="120.65" width="6.35" height="6.35"/>
  <rect x="101.6" y="114.3" width="6.35" height="6.35"/>
  <rect x="120.65" y="107.95" width="6.35" height="6.35"/>
  <rect x="114.3" y="101.6" width="6.35" height="6.35"/>
  <rect x="107.95" y="107.95" width="6.35" height="6.35"/>
  <rect x="101.6" y="101.6" width="6.35" height="6.35"/>
  <rect x="95.25" y="196.85" width="6.35" height="6.35"/>
  <rect x="88.9" y="190.5" width="6.35" height="6.35"/>
  <rect x="82.55" y="196.85" width="6.35" height="6.35"/>
  <rect x="76.2" y="190.5" width="6.35" height="6.35"/>
  <rect x="95.25" y="184.15" width="6.35" height="6.35"/>
  <rect x="88.9" y="177.8" width="6.35" height="6.35"/>
  <rect x="82.55" y="184.15" width="6.35" height="6.35"/>
  <rect x="76.2" y="177.8" width="6.35" height="6.35"/>
  <rect x="69.85" y="196.85" width="6.35" height="6.35"/>
  <rect x="63.5" y="190.5" width="6.35" height="6.35"/>
  <rect x="57.15" y="196.85" width="6.35" height="6.35"/>
  <rect x="50.8" y="190.5" width="6.35" height="6.35"/>
  <rect x="69.85" y="184.15" width="6.35" height="6.35"/>
  <rect x="63.5" y="177.8" width="6.35" height="6.35"/>
  <rect x="57.15" y="184.15" width="6.35" height="6.35"/>
  <rect x="50.8" y="177.8" width="6.35" height="6.35"/>
  <rect x="95.25" y="171.45" width="6.35" height="6.35"/>
  <rect x="88.9" y="165.1" width="6.35" height="6.35"/>
  <rect x="82.55" y="171.45" width="6.35" height="6.35"/>
  <rect x="76.2" y="165.1" width="6.35" height="6.35"/>
  <rect x="95.25" y="158.75" width="6.35" height="6.35"/>
  <rect x="88.9" y="152.4" width="6.35" height="6.35"/>
  <rect x="82.55" y="158.75" width="6.35" height="6.35"/>
  <rect x="76.2" y="152.4" width="6.35" height="6.35"/>
  <rect x="69.85" y="171.45" width="6.35" height="6.35"/>
  <rect x="63.5" y="165.1" width="6.35" height="6.35"/>
  <rect x="57.15" y="171.45" width="6.35" height="6.35"/>
  <rect x="50.8" y="165.1" width="6.35" height="6.35"/>
  <rect x="69.85" y="158.75" width="6.35" height="6.35"/>
  <rect x="63.5" y="152.4" width="6.35" height="6.35"/>
  <rect x="57.15" y="158.75" width="6.35" height="6.35"/>
  <rect x="50.8" y="152.4" width="6.35" height="6.35"/>
  <rect x="44.45" y="196.85" width="6.35" height="6.35"/>
  <rect x="38.1" y="190.5" width="6.35" height="6.35"/>
  <rect x="31.75" y="196.85" width="6.35" height="6.35"/>
  <rect x="25.4" y="190.5" width="6.35" height="6.35"/>
  <rect x="44.45" y="184.15" width="6.35" height="6.35"/>
  <rect x="38.1" y="177.8" width="6.35" height="6.35"/>
  <rect x="31.75" y="184.15" width="6.35" height="6.35"/>
  <rect x="25.4" y="177.8" width="6.35" height="6.35"/>
  <rect x="19.05" y="196.85" width="6.35" height="6.35"/>
  <rect x="12.7" y="190.5" width="6.35" height="6.35"/>
  <rect x="6.35" y="196.85" width="6.35" height="6.35"/>
  <rect x="0" y="190.5" width="6.35" height="6.35"/>
  <rect x="19.05" y="184.15" width="6.35" height="6.35"/>
  <rect x="12.7" y="177.8" width="6.35" height="6.35"/>
  <rect x="6.35" y="184.15" width="6.35" height="6.35"/>
  <rect x="0" y="177.8" width="6.35" height="6.35"/>
  <rect x="44.45" y="171.45" width="6.35" height="6.35"/>
  <rect x="38.1" y="165.1" width="6.35" height="6.35"/>
  <rect x="31.75" y="171.45" width="6.35" height="6.35"/>
  <rect x="25.4" y="165.1" width="6.35" height="6.35"/>
  <rect x="44.45" y="158.75" width="6.35" height="6.35"/>
  <rect x="38.1" y="152.4" width="6.35" height="6.35"/>
  <rect x="31.75" y="158.75" width="6.35" height="6.35"/>
  <rect x="25.4" y="152.4" width="6.35" height="6.35"/>
  <rect x="19.05" y="171.45" width="6.35" height="6.35"/>
  <rect x="12.7" y="165.1" width="6.35" height="6.35"/>
  <rect x="6.35" y="171.45" width="6.35" height="6.35"/>
  <rect x="0" y="165.1" width="6.35" height="6.35"/>
  <rect x="19.05" y="158.75" width="6.35" height="6.35"/>
  <rect x="12.7" y="152.4" width="6.35" height="6.35"/>
  <rect x="6.35" y="158.75" width="6.35" height="6.35"/>
  <rect x="0" y="152.4" width="6.35" height="6.35"/>
  <rect x="95.25" y="146.05" width="6.35" height="6.35"/>
  <rect x="88.9" y="139.7" width="6.35" height="6.35"/>
  <rect x="82.55" y="146.05" width="6.35" height="6.35"/>
  <rect x="76.2" y="139.7" width="6.35" height="6.35"/>
  <rect x="95.25" y="133.35" width="6.35" height="6.35"/>
  <rect x="88.9" y="127" width="6.35" height="6.35"/>
  <rect x="82.55" y="133.35" width="6.35" height="6.35"/>
  <rect x="76.2" y="127" width="6.35" height="6.35"/>
  <rect x="69.85" y="146.05" width="6.35" height="6.35"/>
  <rect x="63.5" y="139.7" width="6.35" height="6.35"/>
  <rect x="57.15" y="146.05" width="6.35" height="6.35"/>
  <rect x="50.8" y="139.7" width="6.35" height="6.35"/>
  <rect x="69.85" y="133.35" width="6.35" height="6.35"/>
  <rect x="63.5" y="127" width="6.35" height="6.35"/>
  <rect x="57.15" y="133.35" width="6.35" height="6.35"/>
  <rect x="50.8" y="127" width="6.35" height="6.35"/>
  <rect x="95.25" y="120.65" width="6.35" height="6.35"/>
  <rect x="88.9" y="114.3" width="6.35" height="6.35"/>
  <rect x="82.55" y="120.65" width="6.35" height="6.35"/>
  <rect x="76.2" y="114.3" width="6.35" height="6.35"/>
  <rect x="95.25" y="107.95" width="6.35" height="6.35"/>
  <rect x="88.9" y="101.6" width="6.35" height="6.35"/>
  <rect x="82.55" y="107.95" width="6.35" height="6.35"/>
  <rect x="76.2" y="101.6" width="6.35" height="6.35"/>
  <rect x="69.85" y="120.65" width="6.35" height="6.35"/>
  <rect x="63.5" y="114.3" width="6.35" height="6.35"/>
  <rect x="57.15" y="120.65" width="6.35" height="6.35"/>
  <rect x="50.8" y="114.3" width="6.35" height="6.35"/>
  <rect x="69.85" y="107.95" width="6.35" height="6.35"/>
  <rect x="63.5" y="101.6" width="6.35" height="6.35"/>
  <rect x="57.15" y="107.95" width="6.35" height="6.35"/>
  <rect x="50.8" y="101.6" width="6.35" height="6.35"/>
  <rect x="44.45" y="146.05" width="6.35" height="6.35"/>
  <rect x="38.1" y="139.7" width="6.35" height="6.35"/>
  <rect x="31.75" y="146.05" width="6.35" height="6.35"/>
  <rect x="25.4" y="139.7" width="6.35" height="6.35"/>
  <rect x="44.45" y="133.35" width="6.35" height="6.35"/>
  <rect x="38.1" y="127" width="6.35" height="6.35"/>
  <rect x="31.75" y="133.35" width="6.35" height="6.35"/>
  <rect x="25.4" y="127" width="6.35" height="6.35"/>
  <rect x="19.05" y="146.05" width="6.35" height="6.35"/>
  <rect x="12.7" y="139.7" width="6.35" height="6.35"/>
  <rect x="6.35" y="146.05" width="6.35" height="6.35"/>
  <rect x="0" y="139.7" width="6.35" height="6.35"/>
  <rect x="19.05" y="133.35" width="6.35" height="6.35"/>
  <rect x="12.7" y="127" width="6.35" height="6.35"/>
  <rect x="6.35" y="133.35" width="6.35" height="6.35"/>
  <rect x="0" y="127" width="6.35" height="6.35"/>
  <rect x="44.45" y="120.65" width="6.35" height="6.35"/>
  <rect x="38.1" y="114.3" width="6.35" height="6.35"/>
  <rect x="31.75" y="120.65" width="6.35" height="6.35"/>
  <rect x="25.4" y="114.3" width="6.35" height="6.35"/>
  <rect x="44.45" y="107.95" width="6.35" height="6.35"/>
  <rect x="38.1" y="101.6" width="6.35" height="6.35"/>
  <rect x="31.75" y="107.95" width="6.35" height="6.35"/>
  <rect x="25.4" y="101.6" width="6.35" height="6.35"/>
  <rect x="19.05" y="120.65" width="6.35" height="6.35"/>
  <rect x="12.7" y="114.3" width="6.35" height="6.35"/>
  <rect x="6.35" y="120.65" width="6.35" height="6.35"/>
  <rect x="0" y="114.3" width="6.35" height="6.35"/>
  <rect x="19.05" y="107.95" width="6.35" height="6.35"/>
  <rect x="12.7" y="101.6" width="6.35" height="6.35"/>
  <rect x="6.35" y="107.95" width="6.35" height="6.35"/>
  <rect x="0" y="101.6" width="6.35" height="6.35"/>
  <rect x="196.85" y="95.25" width="6.35" height="6.35"/>
  <rect x="190.5" y="88.9" width="6.35" height="6.35"/>
  <rect x="184.15" y="95.25" width="6.35" height="6.35"/>
  <rect x="177.8" y="88.9" width="6.35" height="6.35"/>
  <rect x="196.85" y="82.55" width="6.35" height="6.35"/>
  <rect x="190.5" y="76.2" width="6.35" height="6.35"/>
  <rect x="184.15" y="82.55" width="6.35" height="6.35"/>
  <rect x="177.8" y="76.2" width="6.35" height="6.35"/>
  <rect x="171.45" y="95.25" width="6.35" height="6.35"/>
  <rect x="165.1" y="88.9" width="6.35" height="6.35"/>
  <rect x="158.75" y="95.25" width="6.35" height="6.35"/>
  <rect x="152.4" y="88.9" width="6.35" height="6.35"/>
  <rect x="171.45" y="82.55" width="6.35" height="6.35"/>
  <rect x="165.1" y="76.2" width="6.35" height="6.35"/>
  <rect x="158.75" y="82.55" width="6.35" height="6.35"/>
  <rect x="152.4" y="76.2" width="6.35" height="6.35"/>
  <rect x="196.85" y="69.85" width="6.35" height="6.35"/>
  <rect x="190.5" y="63.5" width="6.35" height="6.35"/>
  <rect x="184.15" y="69.85" width="6.35" height="6.35"/>
  <rect x="177.8" y="63.5" width="6.35" height="6.35"/>
  <rect x="196.85" y="57.15" width="6.35" height="6.35"/>
  <rect x="190.5" y="50.8" width="6.35" height="6.35"/>
  <rect x="184.15" y="57.15" width="6.35" height="6.35"/>
  <rect x="177.8" y="50.8" width="6.35" height="6.35"/>
  <rect x="171.45" y="69.85" width="6.35" height="6.35"/>
  <rect x="165.1" y="63.5" width="6.35" height="6.35"/>
  <rect x="158.75" y="69.85" width="6.35" height="6.35"/>
  <rect x="152.4" y="63.5" width="6.35" height="6.35"/>
  <rect x="171.45" y="57.15" width="6.35" height="6.35"/>
  <rect x="165.1" y="50.8" width="6.35" height="6.35"/>
  <rect x="158.75" y="57.15" width="6.35" height="6.35"/>
  <rect x="152.4" y="50.8" width="6.35" height="6.35"/>
  <rect x="146.05" y="95.25" width="6.35" height="6.35"/>
  <rect x="139.7" y="88.9" width="6.35" height="6.35"/>
  <rect x="133.35" y="95.25" width="6.35" height="6.35"/>
  <rect x="127" y="88.9" width="6.35" height="6.35"/>
  <rect x="146.05" y="82.55" width="6.35" height="6.35"/>
  <rect x="139.7" y="76.2" width="6.35" height="6.35"/>
  <rect x="133.35" y="82.55" width="6.35" height="6.35"/>
  <rect x="127" y="76.2" width="6.35" height="6.35"/>
  <rect x="120.65" y="95.25" width="6.35" height="6.35"/>
  <rect x="114.3" y="88.9" width="6.35" height="6.35"/>
  <rect x="107.95" y="95.25" width="6.35" height="6.35"/>
  <rect x="101.6" y="88.9" width="6.35" height="6.35"/>
  <rect x="120.65" y="82.55" width="6.35" height="6.35"/>
  <rect x="114.3" y="76.2" width="6.35" height="6.35"/>
  <rect x="107.95" y="82.55" width="6.35" height="6.35"/>
  <rect x="101.6" y="76.2" width="6.35" height="6.35"/>
  <rect x="146.05" y="69.85" width="6.35" height="6.35"/>
  <rect x="139.7" y="63.5" width="6.35" height="6.35"/>
  <rect x="133.35" y="69.85" width="6.35" height="6.35"/>
  <rect x="127" y="63.5" width="6.35" height="6.35"/>
  <rect x="146.05" y="57.15" width="6.35" height="6.35"/>
  <rect x="139.7" y="50.8" width="6.35" height="6.35"/>
  <rect x="133.35" y="57.15" width="6.35" height="6.35"/>
  <rect x="127" y="50.8" width="6.35" height="6.35"/>
  <rect x="120.65" y="69.85" width="6.35" height="6.35"/>
  <rect x="114.3" y="63.5" width="6.35" height="6.35"/>
  <rect x="107.95" y="69.85" width="6.35" height="6.35"/>
  <rect x="101.6" y="63.5" width="6.35" height="6.35"/>
  <rect x="120.65" y="57.15" width="6.35" height="6.35"/>
  <rect x="114.3" y="50.8" width="6.35" height="6.35"/>
  <rect x="107.95" y="57.15" width="6.35" height="6.35"/>
  <rect x="101.6" y="50.8" width="6.35" height="6.35"/>
  <rect x="196.85" y="44.45" width="6.35" height="6.35"/>
  <rect x="190.5" y="38.1" width="6.35" height="6.35"/>
  <rect x="184.15" y="44.45" width="6.35" height="6.35"/>
  <rect x="177.8" y="38.1" width="6.35" height="6.35"/>
  <rect x="196.85" y="31.75" width="6.35" height="6.35"/>
  <rect x="190.5" y="25.4" width="6.35" height="6.35"/>
  <rect x="184.15" y="31.75" width="6.35" height="6.35"/>
  <rect x="177.8" y="25.4" width="6.35" height="6.35"/>
  <rect x="171.45" y="44.45" width="6.35" height="6.35"/>
  <rect x="165.1" y="38.1" width="6.35" height="6.35"/>
  <rect x="158.75" y="44.45" width="6.35" height="6.35"/>
  <rect x="152.4" y="38.1" width="6.35" height="6.35"/>
  <rect x="171.45" y="31.75" width="6.35" height="6.35"/>
  <rect x="165.1" y="25.4" width="6.35" height="6.35"/>
  <rect x="158.75" y="31.75" width="6.35" height="6.35"/>
  <rect x="152.4" y="25.4" width="6.35" height="6.35"/>
  <rect x="196.85" y="19.05" width="6.35" height="6.35"/>
  <rect x="190.5" y="12.7" width="6.35" height="6.35"/>
  <rect x="184.15" y="19.05" width="6.35" height="6.35"/>
  <rect x="177.8" y="12.7" width="6.35" height="6.35"/>
  <rect x="196.85" y="6.35" width="6.35" height="6.35"/>
  <rect x="190.5" y="0" width="6.35" height="6.35"/>
  <rect x="184.15" y="6.35" width="6.35" height="6.35"/>
  <rect x="177.8" y="0" width="6.35" height="6.35"/>
  <rect x="171.45" y="19.05" width="6.35" height="6.35"/>
  <rect x="165.1" y="12.7" width="6.35" height="6.35"/>
  <rect x="158.75" y="19.05" width="6.35" height="6.35"/>
  <rect x="152.4" y="12.7" width="6.35" height="6.35"/>
  <rect x="171.45" y="6.35" width="6.35" height="6.35"/>
  <rect x="165.1" y="0" width="6.35" height="6.35"/>
  <rect x="158.75" y="6.35" width="6.35" height="6.35"/>
  <rect x="152.4" y="0" width="6.35" height="6.35"/>
  <rect x="146.05" y="44.45" width="6.35" height="6.35"/>
  <rect x="139.7" y="38.1" width="6.35" height="6.35"/>
  <rect x="133.35" y="44.45" width="6.35" height="6.35"/>
  <rect x="127" y="38.1" width="6.35" height="6.35"/>
  <rect x="146.05" y="31.75" width="6.35" height="6.35"/>
  <rect x="139.7" y="25.4" width="6.35" height="6.35"/>
  <rect x="133.35" y="31.75" width="6.35" height="6.35"/>
  <rect x="127" y="25.4" width="6.35" height="6.35"/>
  <rect x="120.65" y="44.45" width="6.35" height="6.35"/>
  <rect x="114.3" y="38.1" width="6.35" height="6.35"/>
  <rect x="107.95" y="44.45" width="6.35" height="6.35"/>
  <rect x="101.6" y="38.1" width="6.35" height="6.35"/>
  <rect x="120.65" y="31.75" width="6.35" height="6.35"/>
  <rect x="114.3" y="25.4" width="6.35" height="6.35"/>
  <rect x="107.95" y="31.75" width="6.35" height="6.35"/>
  <rect x="101.6" y="25.4" width="6.35" height="6.35"/>
  <rect x="146.05" y="19.05" width="6.35" height="6.35"/>
  <rect x="139.7" y="12.7" width="6.35" height="6.35"/>
  <rect x="133.35" y="19.05" width="6.35" height="6.35"/>
  <rect x="127" y="12.7" width="6.35" height="6.35"/>
  <rect x="146.05" y="6.35" width="6.35" height="6.35"/>
  <rect x="139.7" y="0" width="6.35" height="6.35"/>
  <rect x="133.35" y="6.35" width="6.35" height="6.35"/>
  <rect x="127" y="0" width="6.35" height="6.35"/>
  <rect x="120.65" y="19.05" width="6.35" height="6.35"/>
  <rect x="114.3" y="12.7" width="6.35" height="6.35"/>
  <rect x="107.95" y="19.05" width="6.35" height="6.35"/>
  <rect x="101.6" y="12.7" width="6.35" height="6.35"/>
  <rect x="120.65" y="6.35" width="6.35" height="6.35"/>
  <rect x="114.3" y="0" width="6.35" height="6.35"/>
  <rect x="107.95" y="6.35" width="6.35" height="6.35"/>
  <rect x="101.6" y="0" width="6.35" height="6.35"/>
  <rect x="95.25" y="95.25" width="6.35" height="6.35"/>
  <rect x="88.9" y="88.9" width="6.35" height="6.35"/>
  <rect x="82.55" y="95.25" width="6.35" height="6.35"/>
  <rect x="76.2" y="88.9" width="6.35" height="6.35"/>
  <rect x="95.25" y="82.55" width="6.35" height="6.35"/>
  <rect x="88.9" y="76.2" width="6.35" height="6.35"/>
  <rect x="82.55" y="82.55" width="6.35" height="6.35"/>
  <rect x="76.2" y="76.2" width="6.35" height="6.35"/>
  <rect x="69.85" y="95.25" width="6.35" height="6.35"/>
  <rect x="63.5" y="88.9" width="6.35" height="6.35"/>
  <rect x="57.15" y="95.25" width="6.35" height="6.35"/>
  <rect x="50.8" y="88.9" width="6.35" height="6.35"/>
  <rect x="69.85" y="82.55" width="6.35" height="6.35"/>
  <rect x="63.5" y="76.2" width="6.35" height="6.35"/>
  <rect x="57.15" y="82.55" width="6.35" height="6.35"/>
  <rect x="50.8" y="76.2" width="6.35" height="6.35"/>
  <rect x="95.25" y="69.85" width="6.35" height="6.35"/>
  <rect x="88.9" y="63.5" width="6.35" height="6.35"/>
  <rect x="82.55" y="69.85" width="6.35" height="6.35"/>
  <rect x="76.2" y="63.5" width="6.35" height="6.35"/>
  <rect x="95.25" y="57.15" width="6.35" height="6.35"/>
  <rect x="88.9" y="50.8" width="6.35" height="6.35"/>
  <rect x="82.55" y="57.15" width="6.35" height="6.35"/>
  <rect x="76.2" y="50.8" width="6.35" height="6.35"/>
  <rect x="69.85" y="69.85" width="6.35" height="6.35"/>
  <rect x="63.5" y="63.5" width="6.35" height="6.35"/>
  <rect x="57.15" y="69.85" width="6.35" height="6.35"/>
  <rect x="50.8" y="63.5" width="6.35" height="6.35"/>
  <rect x="69.85" y="57.15" width="6.35" height="6.35"/>
  <rect x="63.5" y="50.8" width="6.35" height="6.35"/>
  <rect x="57.15" y="57.15" width="6.35" height="6.35"/>
  <rect x="50.8" y="50.8" width="6.35" height="6.35"/>
  <rect x="44.45" y="95.25" width="6.35" height="6.35"/>
  <rect x="38.1" y="88.9" width="6.35" height="6.35"/>
  <rect x="31.75" y="95.25" width="6.35" height="6.35"/>
  <rect x="25.4" y="88.9" width="6.35" height="6.35"/>
  <rect x="44.45" y="82.55" width="6.35" height="6.35"/>
  <rect x="38.1" y="76.2" width="6.35" height="6.35"/>
  <rect x="31.75" y="82.55" width="6.35" height="6.35"/>
  <rect x="25.4" y="76.2" width="6.35" height="6.35"/>
  <rect x="19.05" y="95.25" width="6.35" height="6.35"/>
  <rect x="12.7" y="88.9" width="6.35" height="6.35"/>
  <rect x="6.35" y="95.25" width="6.35" height="6.35"/>
  <rect x="0" y="88.9" width="6.35" height="6.35"/>
  <rect x="19.05" y="82.55" width="6.35" height="6.35"/>
  <rect x="12.7" y="76.2" width="6.35" height="6.35"/>
  <rect x="6.35" y="82.55" width="6.35" height="6.35"/>
  <rect x="0" y="76.2" width="6.35" height="6.35"/>
  <rect x="44.45" y="69.85" width="6.35" height="6.35"/>
  <rect x="38.1" y="63.5" width="6.35" height="6.35"/>
  <rect x="31.75" y="69.85" width="6.35" height="6.35"/>
  <rect x="25.4" y="63.5" width="6.35" height="6.35"/>
  <rect x="44.45" y="57.15" width="6.35" height="6.35"/>
  <rect x="38.1" y="50.8" width="6.35" height="6.35"/>
  <rect x="31.75" y="57.15" width="6.35" height="6.35"/>
  <rect x="25.4" y="50.8" width="6.35" height="6.35"/>
  <rect x="19.05" y="69.85" width="6.35" height="6.35"/>
  <rect x="12.7" y="63.5" width="6.35" height="6.35"/>
  <rect x="6.35" y="69.85" width="6.35" height="6.35"/>
  <rect x="0" y="63.5" width="6.35" height="6.35"/>
  <rect x="19.05" y="57.15" width="6.35" height="6.35"/>
  <rect x="12.7" y="50.8" width="6.35" height="6.35"/>
  <rect x="6.35" y="57.15" width="6.35" height="6.35"/>
  <rect x="0" y="50.8" width="6.35" height="6.35"/>
  <rect x="95.25" y="44.45" width="6.35" height="6.35"/>
  <rect x="88.9" y="38.1" width="6.35" height="6.35"/>
  <rect x="82.55" y="44.45" width="6.35" height="6.35"/>
  <rect x="76.2" y="38.1" width="6.35" height="6.35"/>
  <rect x="95.25" y="31.75" width="6.35" height="6.35"/>
  <rect x="88.9" y="25.4" width="6.35" height="6.35"/>
  <rect x="82.55" y="31.75" width="6.35" height="6.35"/>
  <rect x="76.2" y="25.4" width="6.35" height="6.35"/>
  <rect x="69.85" y="44.45" width="6.35" height="6.35"/>
  <rect x="63.5" y="38.1" width="6.35" height="6.35"/>
  <rect x="57.15" y="44.45" width="6.35" height="6.35"/>
  <rect x="50.8" y="38.1" width="6.35" height="6.35"/>
  <rect x="69.85" y="31.75" width="6.35" height="6.35"/>
  <rect x="63.5" y="25.4" width="6.35" height="6.35"/>
  <rect x="57.15" y="31.75" width="6.35" height="6.35"/>
  <rect x="50.8" y="25.4" width="6.35" height="6.35"/>
  <rect x="95.25" y="19.05" width="6.35" height="6.35"/>
  <rect x="88.9" y="12.7" width="6.35" height="6.35"/>
  <rect x="82.55" y="19.05" width="6.35" height="6.35"/>
  <rect x="76.2" y="12.7" width="6.35" height="6.35"/>
  <rect x="95.25" y="6.35" width="6.35" height="6.35"/>
  <rect x="88.9" y="0" width="6.35" height="6.35"/>
  <rect x="82.55" y="6.35" width="6.35" height="6.35"/>
  <rect x="76.2" y="0" width="6.35" height="6.35"/>
  <rect x="69.85" y="19.05" width="6.35" height="6.35"/>
  <rect x="63.5" y="12.7" width="6.35" height="6.35"/>
  <rect x="57.15" y="19.05" width="6.35" height="6.35"/>
  <rect x="50.8" y="12.7" width="6.35" height="6.35"/>
  <rect x="69.85" y="6.35" width="6.35" height="6.35"/>
  <rect x="63.5" y="0" width="6.35" height="6.35"/>
  <rect x="57.15" y="6.35" width="6.35" height="6.35"/>
  <rect x="50.8" y="0" width="6.35" height="6.35"/>
  <rect x="44.45" y="44.45" width="6.35" height="6.35"/>
  <rect x="38.1" y="38.1" width="6.35" height="6.35"/>
  <rect x="31.75" y="44.45" width="6.35" height="6.35"/>
  <rect x="25.4" y="38.1" width="6.35" height="6.35"/>
  <rect x="44.45" y="31.75" width="6.35" height="6.35"/>
  <rect x="38.1" y="25.4" width="6.35" height="6.35"/>
  <rect x="31.75" y="31.75" width="6.35" height="6.35"/>
  <rect x="25.4" y="25.4" width="6.35" height="6.35"/>
  <rect x="19.05" y="44.45" width="6.35" height="6.35"/>
  <rect x="12.7" y="38.1" width="6.35" height="6.35"/>
  <rect x="6.35" y="44.45" width="6.35" height="6.35"/>
  <rect x="0" y="38.1" width="6.35" height="6.35"/>
  <rect x="19.05" y="31.75" width="6.35" height="6.35"/>
  <rect x="12.7" y="25.4" width="6.35" height="6.35"/>
  <rect x="6.35" y="31.75" width="6.35" height="6.35"/>
  <rect x="0" y="25.4" width="6.35" height="6.35"/>
  <rect x="44.45" y="19.05" width="6.35" height="6.35"/>
  <rect x="38.1" y="12.7" width="6.35" height="6.35"/>
  <rect x="31.75" y="19.05" width="6.35" height="6.35"/>
  <rect x="25.4" y="12.7" width="6.35" height="6.35"/>
  <rect x="44.45" y="6.35" width="6.35" height="6.35"/>
  <rect x="38.1" y="0" width="6.35" height="6.35"/>
  <rect x="31.75" y="6.35" width="6.35" height="6.35"/>
  <rect x="25.4" y="0" width="6.35" height="6.35"/>
  <rect x="19.05" y="19.05" width="6.35" height="6.35"/>
  <rect x="12.7" y="12.7" width="6.35" height="6.35"/>
  <rect x="6.35" y="19.05" width="6.35" height="6.35"/>
  <rect x="0" y="12.7" width="6.35" height="6.35"/>
  <rect x="19.05" y="6.35" width="6.35" height="6.35"/>
  <rect x="12.7" y="0" width="6.35" height="6.35"/>
  <rect x="6.35" y="6.35" width="6.35" height="6.35"/>
  <rect x="0" y="0" width="6.35" height="6.35"/>
</g>
</svg>
