<?xml version="1.0" encoding="UTF-8"?>
<svg xmlns="http://www.w3.org/2000/svg"
     xmlns:xlink="http://www.w3.org/1999/xlink"
     xmlns:gadfly="http://www.gadflyjl.org/ns"
     version="1.2"
     width="203.2mm" height="203.2mm" viewBox="0 0 203.2 203.2"
     stroke="none"
     fill="#000000"
     stroke-width="0.3"
     font-size="3.88"
>
<g fill="#000000" id="fig-fd30beb7007349f4b8b81cbe0c241ecc-element-1">
  <rect x="177.8" y="177.8" width="25.4" height="25.4"/>
  <rect x="152.4" y="152.4" width="25.4" height="25.4"/>
  <rect x="127" y="177.8" width="25.4" height="25.4"/>
  <rect x="101.6" y="152.4" width="25.4" height="25.4"/>
  <rect x="177.8" y="127" width="25.4" height="25.4"/>
  <rect x="152.4" y="101.6" width="25.4" height="25.4"/>
  <rect x="127" y="127" width="25.4" height="25.4"/>
  <rect x="101.6" y="101.6" width="25.4" height="25.4"/>
  <rect x="76.2" y="177.8" width="25.4" height="25.4"/>
  <rect x="50.8" y="152.4" width="25.4" height="25.4"/>
  <rect x="25.4" y="177.8" width="25.4" height="25.4"/>
  <rect x="0" y="152.4" width="25.4" height="25.4"/>
  <rect x="76.2" y="127" width="25.4" height="25.4"/>
  <rect x="50.8" y="101.6" width="25.4" height="25.4"/>
  <rect x="25.4" y="127" width="25.4" height="25.4"/>
  <rect x="0" y="101.6" width="25.4" height="25.4"/>
  <rect x="177.8" y="76.2" width="25.4" height="25.4"/>
  <rect x="152.4" y="50.8" width="25.4" height="25.4"/>
  <rect x="127" y="76.2" width="25.4" height="25.4"/>
  <rect x="101.6" y="50.8" width="25.4" height="25.4"/>
  <rect x="177.8" y="25.4" width="25.4" height="25.4"/>
  <rect x="152.4" y="0" width="25.4" height="25.4"/>
  <rect x="127" y="25.4" width="25.4" height="25.4"/>
  <rect x="101.6" y="0" width="25.4" height="25.4"/>
  <rect x="76.2" y="76.2" width="25.4" height="25.4"/>
  <rect x="50.8" y="50.8" width="25.4" height="25.4"/>
  <rect x="25.4" y="76.2" width="25.4" height="25.4"/>
  <rect x="0" y="50.8" width="25.4" height="25.4"/>
  <rect x="76.2" y="25.4" width="25.4" height="25.4"/>
  <rect x="50.8" y="0" width="25.4" height="25.4"/>
  <rect x="25.4" y="25.4" width="25.4" height="25.4"/>
  <rect x="0" y="0" width="25.4" height="25.4"/>
</g>
</svg>
