<?xml version="1.0" encoding="UTF-8"?>
<svg xmlns="http://www.w3.org/2000/svg"
     xmlns:xlink="http://www.w3.org/1999/xlink"
     xmlns:gadfly="http://www.gadflyjl.org/ns"
     version="1.2"
     width="152.4mm" height="152.4mm" viewBox="0 0 152.4 152.4"
     stroke="none"
     fill="#000000"
     stroke-width="0.3"
     font-size="3.88"
>
<g fill="#000000" id="fig-92863fc73d1042e6a3be459932cab0b4-element-1">
  <rect x="142.87" y="142.87" width="9.52" height="9.52"/>
  <rect x="133.35" y="133.35" width="9.52" height="9.52"/>
  <rect x="123.82" y="142.87" width="9.52" height="9.52"/>
  <rect x="114.3" y="133.35" width="9.52" height="9.52"/>
  <rect x="142.87" y="123.82" width="9.52" height="9.52"/>
  <rect x="133.35" y="114.3" width="9.52" height="9.52"/>
  <rect x="123.82" y="123.82" width="9.52" height="9.52"/>
  <rect x="114.3" y="114.3" width="9.52" height="9.52"/>
  <rect x="104.77" y="142.87" width="9.52" height="9.52"/>
  <rect x="95.25" y="133.35" width="9.52" height="9.52"/>
  <rect x="85.73" y="142.87" width="9.52" height="9.52"/>
  <rect x="76.2" y="133.35" width="9.52" height="9.52"/>
  <rect x="104.77" y="123.82" width="9.52" height="9.52"/>
  <rect x="95.25" y="114.3" width="9.52" height="9.52"/>
  <rect x="85.73" y="123.82" width="9.52" height="9.52"/>
  <rect x="76.2" y="114.3" width="9.52" height="9.52"/>
  <rect x="142.87" y="104.77" width="9.52" height="9.52"/>
  <rect x="133.35" y="95.25" width="9.52" height="9.52"/>
  <rect x="123.82" y="104.77" width="9.52" height="9.52"/>
  <rect x="114.3" y="95.25" width="9.52" height="9.52"/>
  <rect x="142.87" y="85.73" width="9.52" height="9.52"/>
  <rect x="133.35" y="76.2" width="9.52" height="9.52"/>
  <rect x="123.82" y="85.73" width="9.52" height="9.52"/>
  <rect x="114.3" y="76.2" width="9.52" height="9.52"/>
  <rect x="104.77" y="104.77" width="9.52" height="9.52"/>
  <rect x="95.25" y="95.25" width="9.52" height="9.52"/>
  <rect x="85.73" y="104.77" width="9.52" height="9.52"/>
  <rect x="76.2" y="95.25" width="9.52" height="9.52"/>
  <rect x="104.77" y="85.73" width="9.52" height="9.52"/>
  <rect x="95.25" y="76.2" width="9.52" height="9.52"/>
  <rect x="85.73" y="85.73" width="9.52" height="9.52"/>
  <rect x="76.2" y="76.2" width="9.52" height="9.52"/>
  <rect x="66.67" y="142.87" width="9.52" height="9.52"/>
  <rect x="57.15" y="133.35" width="9.52" height="9.52"/>
  <rect x="47.62" y="142.87" width="9.52" height="9.52"/>
  <rect x="38.1" y="133.35" width="9.52" height="9.52"/>
  <rect x="66.67" y="123.82" width="9.52" height="9.52"/>
  <rect x="57.15" y="114.3" width="9.52" height="9.52"/>
  <rect x="47.62" y="123.82" width="9.52" height="9.52"/>
  <rect x="38.1" y="114.3" width="9.52" height="9.52"/>
  <rect x="28.57" y="142.87" width="9.52" height="9.52"/>
  <rect x="19.05" y="133.35" width="9.52" height="9.52"/>
  <rect x="9.52" y="142.87" width="9.52" height="9.52"/>
  <rect x="0" y="133.35" width="9.52" height="9.52"/>
  <rect x="28.57" y="123.82" width="9.52" height="9.52"/>
  <rect x="19.05" y="114.3" width="9.52" height="9.52"/>
  <rect x="9.52" y="123.82" width="9.52" height="9.52"/>
  <rect x="0" y="114.3" width="9.52" height="9.52"/>
  <rect x="66.67" y="104.77" width="9.52" height="9.52"/>
  <rect x="57.15" y="95.25" width="9.52" height="9.52"/>
  <rect x="47.62" y="104.77" width="9.52" height="9.52"/>
  <rect x="38.1" y="95.25" width="9.52" height="9.52"/>
  <rect x="66.67" y="85.73" width="9.52" height="9.52"/>
  <rect x="57.15" y="76.2" width="9.52" height="9.52"/>
  <rect x="47.62" y="85.73" width="9.52" height="9.52"/>
  <rect x="38.1" y="76.2" width="9.52" height="9.52"/>
  <rect x="28.57" y="104.77" width="9.52" height="9.52"/>
  <rect x="19.05" y="95.25" width="9.52" height="9.52"/>
  <rect x="9.52" y="104.77" width="9.52" height="9.52"/>
  <rect x="0" y="95.25" width="9.52" height="9.52"/>
  <rect x="28.57" y="85.73" width="9.52" height="9.52"/>
  <rect x="19.05" y="76.2" width="9.52" height="9.52"/>
  <rect x="9.52" y="85.73" width="9.52" height="9.52"/>
  <rect x="0" y="76.2" width="9.52" height="9.52"/>
  <rect x="142.87" y="66.67" width="9.52" height="9.52"/>
  <rect x="133.35" y="57.15" width="9.52" height="9.52"/>
  <rect x="123.82" y="66.67" width="9.52" height="9.52"/>
  <rect x="114.3" y="57.15" width="9.52" height="9.52"/>
  <rect x="142.87" y="47.62" width="9.52" height="9.52"/>
  <rect x="133.35" y="38.1" width="9.52" height="9.52"/>
  <rect x="123.82" y="47.62" width="9.52" height="9.52"/>
  <rect x="114.3" y="38.1" width="9.52" height="9.52"/>
  <rect x="104.77" y="66.67" width="9.52" height="9.52"/>
  <rect x="95.25" y="57.15" width="9.52" height="9.52"/>
  <rect x="85.73" y="66.67" width="9.52" height="9.52"/>
  <rect x="76.2" y="57.15" width="9.52" height="9.52"/>
  <rect x="104.77" y="47.62" width="9.52" height="9.52"/>
  <rect x="95.25" y="38.1" width="9.52" height="9.52"/>
  <rect x="85.73" y="47.62" width="9.52" height="9.52"/>
  <rect x="76.2" y="38.1" width="9.52" height="9.52"/>
  <rect x="142.87" y="28.57" width="9.52" height="9.52"/>
  <rect x="133.35" y="19.05" width="9.52" height="9.52"/>
  <rect x="123.82" y="28.57" width="9.52" height="9.52"/>
  <rect x="114.3" y="19.05" width="9.52" height="9.52"/>
  <rect x="142.87" y="9.52" width="9.52" height="9.52"/>
  <rect x="133.35" y="0" width="9.52" height="9.52"/>
  <rect x="123.82" y="9.52" width="9.52" height="9.52"/>
  <rect x="114.3" y="0" width="9.52" height="9.52"/>
  <rect x="104.77" y="28.57" width="9.52" height="9.52"/>
  <rect x="95.25" y="19.05" width="9.52" height="9.52"/>
  <rect x="85.73" y="28.57" width="9.52" height="9.52"/>
  <rect x="76.2" y="19.05" width="9.52" height="9.52"/>
  <rect x="104.77" y="9.52" width="9.52" height="9.52"/>
  <rect x="95.25" y="0" width="9.52" height="9.52"/>
  <rect x="85.73" y="9.52" width="9.52" height="9.52"/>
  <rect x="76.2" y="0" width="9.52" height="9.52"/>
  <rect x="66.67" y="66.67" width="9.52" height="9.52"/>
  <rect x="57.15" y="57.15" width="9.52" height="9.52"/>
  <rect x="47.62" y="66.67" width="9.52" height="9.52"/>
  <rect x="38.1" y="57.15" width="9.52" height="9.52"/>
  <rect x="66.67" y="47.62" width="9.52" height="9.52"/>
  <rect x="57.15" y="38.1" width="9.52" height="9.52"/>
  <rect x="47.62" y="47.62" width="9.52" height="9.52"/>
  <rect x="38.1" y="38.1" width="9.52" height="9.52"/>
  <rect x="28.57" y="66.67" width="9.52" height="9.52"/>
  <rect x="19.05" y="57.15" width="9.52" height="9.52"/>
  <rect x="9.52" y="66.67" width="9.52" height="9.52"/>
  <rect x="0" y="57.15" width="9.52" height="9.52"/>
  <rect x="28.57" y="47.62" width="9.52" height="9.52"/>
  <rect x="19.05" y="38.1" width="9.52" height="9.52"/>
  <rect x="9.52" y="47.62" width="9.52" height="9.52"/>
  <rect x="0" y="38.1" width="9.52" height="9.52"/>
  <rect x="66.67" y="28.57" width="9.52" height="9.52"/>
  <rect x="57.15" y="19.05" width="9.52" height="9.52"/>
  <rect x="47.62" y="28.57" width="9.52" height="9.52"/>
  <rect x="38.1" y="19.05" width="9.52" height="9.52"/>
  <rect x="66.67" y="9.52" width="9.52" height="9.52"/>
  <rect x="57.15" y="0" width="9.52" height="9.52"/>
  <rect x="47.62" y="9.52" width="9.52" height="9.52"/>
  <rect x="38.1" y="0" width="9.52" height="9.52"/>
  <rect x="28.57" y="28.57" width="9.52" height="9.52"/>
  <rect x="19.05" y="19.05" width="9.52" height="9.52"/>
  <rect x="9.52" y="28.57" width="9.52" height="9.52"/>
  <rect x="0" y="19.05" width="9.52" height="9.52"/>
  <rect x="28.57" y="9.52" width="9.52" height="9.52"/>
  <rect x="19.05" y="0" width="9.52" height="9.52"/>
  <rect x="9.52" y="9.52" width="9.52" height="9.52"/>
  <rect x="0" y="0" width="9.52" height="9.52"/>
</g>
</svg>
