<?xml version="1.0" encoding="UTF-8"?>
<svg xmlns="http://www.w3.org/2000/svg"
     xmlns:xlink="http://www.w3.org/1999/xlink"
     xmlns:gadfly="http://www.gadflyjl.org/ns"
     version="1.2"
     width="101.6mm" height="101.6mm" viewBox="0 0 101.6 101.6"
     stroke="none"
     fill="#000000"
     stroke-width="0.3"
     font-size="3.88"
>
<g fill="#000000" id="fig-ecab643f925b4012bb96e11b460cb4e8-element-1">
  <rect x="95.25" y="95.25" width="6.35" height="6.35"/>
  <rect x="88.9" y="88.9" width="6.35" height="6.35"/>
  <rect x="82.55" y="95.25" width="6.35" height="6.35"/>
  <rect x="76.2" y="88.9" width="6.35" height="6.35"/>
  <rect x="95.25" y="82.55" width="6.35" height="6.35"/>
  <rect x="88.9" y="76.2" width="6.35" height="6.35"/>
  <rect x="82.55" y="82.55" width="6.35" height="6.35"/>
  <rect x="76.2" y="76.2" width="6.35" height="6.35"/>
  <rect x="69.85" y="95.25" width="6.35" height="6.35"/>
  <rect x="63.5" y="88.9" width="6.35" height="6.35"/>
  <rect x="57.15" y="95.25" width="6.35" height="6.35"/>
  <rect x="50.8" y="88.9" width="6.35" height="6.35"/>
  <rect x="69.85" y="82.55" width="6.35" height="6.35"/>
  <rect x="63.5" y="76.2" width="6.35" height="6.35"/>
  <rect x="57.15" y="82.55" width="6.35" height="6.35"/>
  <rect x="50.8" y="76.2" width="6.35" height="6.35"/>
  <rect x="95.25" y="69.85" width="6.35" height="6.35"/>
  <rect x="88.9" y="63.5" width="6.35" height="6.35"/>
  <rect x="82.55" y="69.85" width="6.35" height="6.35"/>
  <rect x="76.2" y="63.5" width="6.35" height="6.35"/>
  <rect x="95.25" y="57.15" width="6.35" height="6.35"/>
  <rect x="88.9" y="50.8" width="6.35" height="6.35"/>
  <rect x="82.55" y="57.15" width="6.35" height="6.35"/>
  <rect x="76.2" y="50.8" width="6.35" height="6.35"/>
  <rect x="69.85" y="69.85" width="6.35" height="6.35"/>
  <rect x="63.5" y="63.5" width="6.35" height="6.35"/>
  <rect x="57.15" y="69.85" width="6.35" height="6.35"/>
  <rect x="50.8" y="63.5" width="6.35" height="6.35"/>
  <rect x="69.85" y="57.15" width="6.35" height="6.35"/>
  <rect x="63.5" y="50.8" width="6.35" height="6.35"/>
  <rect x="57.15" y="57.15" width="6.35" height="6.35"/>
  <rect x="50.8" y="50.8" width="6.35" height="6.35"/>
  <rect x="44.45" y="95.25" width="6.35" height="6.35"/>
  <rect x="38.1" y="88.9" width="6.35" height="6.35"/>
  <rect x="31.75" y="95.25" width="6.35" height="6.35"/>
  <rect x="25.4" y="88.9" width="6.35" height="6.35"/>
  <rect x="44.45" y="82.55" width="6.35" height="6.35"/>
  <rect x="38.1" y="76.2" width="6.35" height="6.35"/>
  <rect x="31.75" y="82.55" width="6.35" height="6.35"/>
  <rect x="25.4" y="76.2" width="6.35" height="6.35"/>
  <rect x="19.05" y="95.25" width="6.35" height="6.35"/>
  <rect x="12.7" y="88.9" width="6.35" height="6.35"/>
  <rect x="6.35" y="95.25" width="6.35" height="6.35"/>
  <rect x="0" y="88.9" width="6.35" height="6.35"/>
  <rect x="19.05" y="82.55" width="6.35" height="6.35"/>
  <rect x="12.7" y="76.2" width="6.35" height="6.35"/>
  <rect x="6.35" y="82.55" width="6.35" height="6.35"/>
  <rect x="0" y="76.2" width="6.35" height="6.35"/>
  <rect x="44.45" y="69.85" width="6.35" height="6.35"/>
  <rect x="38.1" y="63.5" width="6.35" height="6.35"/>
  <rect x="31.75" y="69.85" width="6.35" height="6.35"/>
  <rect x="25.4" y="63.5" width="6.35" height="6.35"/>
  <rect x="44.45" y="57.15" width="6.35" height="6.35"/>
  <rect x="38.1" y="50.8" width="6.35" height="6.35"/>
  <rect x="31.75" y="57.15" width="6.35" height="6.35"/>
  <rect x="25.4" y="50.8" width="6.35" height="6.35"/>
  <rect x="19.05" y="69.85" width="6.35" height="6.35"/>
  <rect x="12.7" y="63.5" width="6.35" height="6.35"/>
  <rect x="6.35" y="69.85" width="6.35" height="6.35"/>
  <rect x="0" y="63.5" width="6.35" height="6.35"/>
  <rect x="19.05" y="57.15" width="6.35" height="6.35"/>
  <rect x="12.7" y="50.8" width="6.35" height="6.35"/>
  <rect x="6.35" y="57.15" width="6.35" height="6.35"/>
  <rect x="0" y="50.8" width="6.35" height="6.35"/>
  <rect x="95.25" y="44.45" width="6.35" height="6.35"/>
  <rect x="88.9" y="38.1" width="6.35" height="6.35"/>
  <rect x="82.55" y="44.45" width="6.35" height="6.35"/>
  <rect x="76.2" y="38.1" width="6.35" height="6.35"/>
  <rect x="95.25" y="31.75" width="6.35" height="6.35"/>
  <rect x="88.9" y="25.4" width="6.35" height="6.35"/>
  <rect x="82.55" y="31.75" width="6.35" height="6.35"/>
  <rect x="76.2" y="25.4" width="6.35" height="6.35"/>
  <rect x="69.85" y="44.45" width="6.35" height="6.35"/>
  <rect x="63.5" y="38.1" width="6.35" height="6.35"/>
  <rect x="57.15" y="44.45" width="6.35" height="6.35"/>
  <rect x="50.8" y="38.1" width="6.35" height="6.35"/>
  <rect x="69.85" y="31.75" width="6.35" height="6.35"/>
  <rect x="63.5" y="25.4" width="6.35" height="6.35"/>
  <rect x="57.15" y="31.75" width="6.35" height="6.35"/>
  <rect x="50.8" y="25.4" width="6.35" height="6.35"/>
  <rect x="95.25" y="19.05" width="6.35" height="6.35"/>
  <rect x="88.9" y="12.7" width="6.35" height="6.35"/>
  <rect x="82.55" y="19.05" width="6.35" height="6.35"/>
  <rect x="76.2" y="12.7" width="6.35" height="6.35"/>
  <rect x="95.25" y="6.35" width="6.35" height="6.35"/>
  <rect x="88.9" y="0" width="6.35" height="6.35"/>
  <rect x="82.55" y="6.35" width="6.35" height="6.35"/>
  <rect x="76.2" y="0" width="6.35" height="6.35"/>
  <rect x="69.85" y="19.05" width="6.35" height="6.35"/>
  <rect x="63.5" y="12.7" width="6.35" height="6.35"/>
  <rect x="57.15" y="19.05" width="6.35" height="6.35"/>
  <rect x="50.8" y="12.7" width="6.35" height="6.35"/>
  <rect x="69.85" y="6.35" width="6.35" height="6.35"/>
  <rect x="63.5" y="0" width="6.35" height="6.35"/>
  <rect x="57.15" y="6.35" width="6.35" height="6.35"/>
  <rect x="50.8" y="0" width="6.35" height="6.35"/>
  <rect x="44.45" y="44.45" width="6.35" height="6.35"/>
  <rect x="38.1" y="38.1" width="6.35" height="6.35"/>
  <rect x="31.75" y="44.45" width="6.35" height="6.35"/>
  <rect x="25.4" y="38.1" width="6.35" height="6.35"/>
  <rect x="44.45" y="31.75" width="6.35" height="6.35"/>
  <rect x="38.1" y="25.4" width="6.35" height="6.35"/>
  <rect x="31.75" y="31.75" width="6.35" height="6.35"/>
  <rect x="25.4" y="25.4" width="6.35" height="6.35"/>
  <rect x="19.05" y="44.45" width="6.35" height="6.35"/>
  <rect x="12.7" y="38.1" width="6.35" height="6.35"/>
  <rect x="6.35" y="44.45" width="6.35" height="6.35"/>
  <rect x="0" y="38.1" width="6.35" height="6.35"/>
  <rect x="19.05" y="31.75" width="6.35" height="6.35"/>
  <rect x="12.7" y="25.4" width="6.35" height="6.35"/>
  <rect x="6.35" y="31.75" width="6.35" height="6.35"/>
  <rect x="0" y="25.4" width="6.35" height="6.35"/>
  <rect x="44.45" y="19.05" width="6.35" height="6.35"/>
  <rect x="38.1" y="12.7" width="6.35" height="6.35"/>
  <rect x="31.75" y="19.05" width="6.35" height="6.35"/>
  <rect x="25.4" y="12.7" width="6.35" height="6.35"/>
  <rect x="44.45" y="6.35" width="6.35" height="6.35"/>
  <rect x="38.1" y="0" width="6.35" height="6.35"/>
  <rect x="31.75" y="6.35" width="6.35" height="6.35"/>
  <rect x="25.4" y="0" width="6.35" height="6.35"/>
  <rect x="19.05" y="19.05" width="6.35" height="6.35"/>
  <rect x="12.7" y="12.7" width="6.35" height="6.35"/>
  <rect x="6.35" y="19.05" width="6.35" height="6.35"/>
  <rect x="0" y="12.7" width="6.35" height="6.35"/>
  <rect x="19.05" y="6.35" width="6.35" height="6.35"/>
  <rect x="12.7" y="0" width="6.35" height="6.35"/>
  <rect x="6.35" y="6.35" width="6.35" height="6.35"/>
  <rect x="0" y="0" width="6.35" height="6.35"/>
</g>
</svg>
