<?xml version="1.0" encoding="UTF-8"?>
<svg xmlns="http://www.w3.org/2000/svg"
     xmlns:xlink="http://www.w3.org/1999/xlink"
     xmlns:gadfly="http://www.gadflyjl.org/ns"
     version="1.2"
     width="101.6mm" height="101.6mm" viewBox="0 0 101.6 101.6"
     stroke="none"
     fill="#000000"
     stroke-width="0.3"
     font-size="3.88"
>
<g fill="#000000" id="fig-b5df315f9e324e8daa2af34c9814940b-element-1">
  <rect x="98.42" y="98.42" width="3.18" height="3.18"/>
  <rect x="95.25" y="95.25" width="3.18" height="3.18"/>
  <rect x="92.07" y="98.42" width="3.18" height="3.18"/>
  <rect x="88.9" y="95.25" width="3.18" height="3.18"/>
  <rect x="98.42" y="92.07" width="3.18" height="3.18"/>
  <rect x="95.25" y="88.9" width="3.18" height="3.18"/>
  <rect x="92.07" y="92.07" width="3.18" height="3.18"/>
  <rect x="88.9" y="88.9" width="3.18" height="3.18"/>
  <rect x="85.72" y="98.42" width="3.18" height="3.18"/>
  <rect x="82.55" y="95.25" width="3.18" height="3.18"/>
  <rect x="79.37" y="98.42" width="3.18" height="3.18"/>
  <rect x="76.2" y="95.25" width="3.18" height="3.18"/>
  <rect x="85.72" y="92.07" width="3.18" height="3.18"/>
  <rect x="82.55" y="88.9" width="3.18" height="3.18"/>
  <rect x="79.37" y="92.07" width="3.18" height="3.18"/>
  <rect x="76.2" y="88.9" width="3.18" height="3.18"/>
  <rect x="98.42" y="85.72" width="3.18" height="3.18"/>
  <rect x="95.25" y="82.55" width="3.18" height="3.18"/>
  <rect x="92.07" y="85.72" width="3.18" height="3.18"/>
  <rect x="88.9" y="82.55" width="3.18" height="3.18"/>
  <rect x="98.42" y="79.37" width="3.18" height="3.18"/>
  <rect x="95.25" y="76.2" width="3.18" height="3.18"/>
  <rect x="92.07" y="79.37" width="3.18" height="3.18"/>
  <rect x="88.9" y="76.2" width="3.18" height="3.18"/>
  <rect x="85.72" y="85.72" width="3.18" height="3.18"/>
  <rect x="82.55" y="82.55" width="3.18" height="3.18"/>
  <rect x="79.37" y="85.72" width="3.18" height="3.18"/>
  <rect x="76.2" y="82.55" width="3.18" height="3.18"/>
  <rect x="85.72" y="79.37" width="3.18" height="3.18"/>
  <rect x="82.55" y="76.2" width="3.18" height="3.18"/>
  <rect x="79.37" y="79.37" width="3.18" height="3.18"/>
  <rect x="76.2" y="76.2" width="3.18" height="3.18"/>
  <rect x="73.02" y="98.42" width="3.18" height="3.18"/>
  <rect x="69.85" y="95.25" width="3.18" height="3.18"/>
  <rect x="66.68" y="98.42" width="3.18" height="3.18"/>
  <rect x="63.5" y="95.25" width="3.18" height="3.18"/>
  <rect x="73.02" y="92.07" width="3.18" height="3.18"/>
  <rect x="69.85" y="88.9" width="3.18" height="3.18"/>
  <rect x="66.68" y="92.07" width="3.18" height="3.18"/>
  <rect x="63.5" y="88.9" width="3.18" height="3.18"/>
  <rect x="60.32" y="98.42" width="3.18" height="3.18"/>
  <rect x="57.15" y="95.25" width="3.18" height="3.18"/>
  <rect x="53.97" y="98.42" width="3.18" height="3.18"/>
  <rect x="50.8" y="95.25" width="3.18" height="3.18"/>
  <rect x="60.32" y="92.07" width="3.18" height="3.18"/>
  <rect x="57.15" y="88.9" width="3.18" height="3.18"/>
  <rect x="53.97" y="92.07" width="3.18" height="3.18"/>
  <rect x="50.8" y="88.9" width="3.18" height="3.18"/>
  <rect x="73.02" y="85.72" width="3.18" height="3.18"/>
  <rect x="69.85" y="82.55" width="3.18" height="3.18"/>
  <rect x="66.68" y="85.72" width="3.18" height="3.18"/>
  <rect x="63.5" y="82.55" width="3.18" height="3.18"/>
  <rect x="73.02" y="79.37" width="3.18" height="3.18"/>
  <rect x="69.85" y="76.2" width="3.18" height="3.18"/>
  <rect x="66.68" y="79.37" width="3.18" height="3.18"/>
  <rect x="63.5" y="76.2" width="3.18" height="3.18"/>
  <rect x="60.32" y="85.72" width="3.18" height="3.18"/>
  <rect x="57.15" y="82.55" width="3.18" height="3.18"/>
  <rect x="53.97" y="85.72" width="3.18" height="3.18"/>
  <rect x="50.8" y="82.55" width="3.18" height="3.18"/>
  <rect x="60.32" y="79.37" width="3.18" height="3.18"/>
  <rect x="57.15" y="76.2" width="3.18" height="3.18"/>
  <rect x="53.97" y="79.37" width="3.18" height="3.18"/>
  <rect x="50.8" y="76.2" width="3.18" height="3.18"/>
  <rect x="98.42" y="73.02" width="3.18" height="3.18"/>
  <rect x="95.25" y="69.85" width="3.18" height="3.18"/>
  <rect x="92.07" y="73.02" width="3.18" height="3.18"/>
  <rect x="88.9" y="69.85" width="3.18" height="3.18"/>
  <rect x="98.42" y="66.68" width="3.18" height="3.18"/>
  <rect x="95.25" y="63.5" width="3.18" height="3.18"/>
  <rect x="92.07" y="66.68" width="3.18" height="3.18"/>
  <rect x="88.9" y="63.5" width="3.18" height="3.18"/>
  <rect x="85.72" y="73.02" width="3.18" height="3.18"/>
  <rect x="82.55" y="69.85" width="3.18" height="3.18"/>
  <rect x="79.37" y="73.02" width="3.18" height="3.18"/>
  <rect x="76.2" y="69.85" width="3.18" height="3.18"/>
  <rect x="85.72" y="66.68" width="3.18" height="3.18"/>
  <rect x="82.55" y="63.5" width="3.18" height="3.18"/>
  <rect x="79.37" y="66.68" width="3.18" height="3.18"/>
  <rect x="76.2" y="63.5" width="3.18" height="3.18"/>
  <rect x="98.42" y="60.32" width="3.18" height="3.18"/>
  <rect x="95.25" y="57.15" width="3.18" height="3.18"/>
  <rect x="92.07" y="60.32" width="3.18" height="3.18"/>
  <rect x="88.9" y="57.15" width="3.18" height="3.18"/>
  <rect x="98.42" y="53.97" width="3.18" height="3.18"/>
  <rect x="95.25" y="50.8" width="3.18" height="3.18"/>
  <rect x="92.07" y="53.97" width="3.18" height="3.18"/>
  <rect x="88.9" y="50.8" width="3.18" height="3.18"/>
  <rect x="85.72" y="60.32" width="3.18" height="3.18"/>
  <rect x="82.55" y="57.15" width="3.18" height="3.18"/>
  <rect x="79.37" y="60.32" width="3.18" height="3.18"/>
  <rect x="76.2" y="57.15" width="3.18" height="3.18"/>
  <rect x="85.72" y="53.97" width="3.18" height="3.18"/>
  <rect x="82.55" y="50.8" width="3.18" height="3.18"/>
  <rect x="79.37" y="53.97" width="3.18" height="3.18"/>
  <rect x="76.2" y="50.8" width="3.18" height="3.18"/>
  <rect x="73.02" y="73.02" width="3.18" height="3.18"/>
  <rect x="69.85" y="69.85" width="3.18" height="3.18"/>
  <rect x="66.68" y="73.02" width="3.18" height="3.18"/>
  <rect x="63.5" y="69.85" width="3.18" height="3.18"/>
  <rect x="73.02" y="66.68" width="3.18" height="3.18"/>
  <rect x="69.85" y="63.5" width="3.18" height="3.18"/>
  <rect x="66.68" y="66.68" width="3.18" height="3.18"/>
  <rect x="63.5" y="63.5" width="3.18" height="3.18"/>
  <rect x="60.32" y="73.02" width="3.18" height="3.18"/>
  <rect x="57.15" y="69.85" width="3.18" height="3.18"/>
  <rect x="53.97" y="73.02" width="3.18" height="3.18"/>
  <rect x="50.8" y="69.85" width="3.18" height="3.18"/>
  <rect x="60.32" y="66.68" width="3.18" height="3.18"/>
  <rect x="57.15" y="63.5" width="3.18" height="3.18"/>
  <rect x="53.97" y="66.68" width="3.18" height="3.18"/>
  <rect x="50.8" y="63.5" width="3.18" height="3.18"/>
  <rect x="73.02" y="60.32" width="3.18" height="3.18"/>
  <rect x="69.85" y="57.15" width="3.18" height="3.18"/>
  <rect x="66.68" y="60.32" width="3.18" height="3.18"/>
  <rect x="63.5" y="57.15" width="3.18" height="3.18"/>
  <rect x="73.02" y="53.97" width="3.18" height="3.18"/>
  <rect x="69.85" y="50.8" width="3.18" height="3.18"/>
  <rect x="66.68" y="53.97" width="3.18" height="3.18"/>
  <rect x="63.5" y="50.8" width="3.18" height="3.18"/>
  <rect x="60.32" y="60.32" width="3.18" height="3.18"/>
  <rect x="57.15" y="57.15" width="3.18" height="3.18"/>
  <rect x="53.97" y="60.32" width="3.18" height="3.18"/>
  <rect x="50.8" y="57.15" width="3.18" height="3.18"/>
  <rect x="60.32" y="53.97" width="3.18" height="3.18"/>
  <rect x="57.15" y="50.8" width="3.18" height="3.18"/>
  <rect x="53.97" y="53.97" width="3.18" height="3.18"/>
  <rect x="50.8" y="50.8" width="3.18" height="3.18"/>
  <rect x="47.62" y="98.42" width="3.18" height="3.18"/>
  <rect x="44.45" y="95.25" width="3.18" height="3.18"/>
  <rect x="41.27" y="98.42" width="3.18" height="3.18"/>
  <rect x="38.1" y="95.25" width="3.18" height="3.18"/>
  <rect x="47.62" y="92.07" width="3.18" height="3.18"/>
  <rect x="44.45" y="88.9" width="3.18" height="3.18"/>
  <rect x="41.27" y="92.07" width="3.18" height="3.18"/>
  <rect x="38.1" y="88.9" width="3.18" height="3.18"/>
  <rect x="34.92" y="98.42" width="3.18" height="3.18"/>
  <rect x="31.75" y="95.25" width="3.18" height="3.18"/>
  <rect x="28.58" y="98.42" width="3.18" height="3.18"/>
  <rect x="25.4" y="95.25" width="3.18" height="3.18"/>
  <rect x="34.92" y="92.07" width="3.18" height="3.18"/>
  <rect x="31.75" y="88.9" width="3.18" height="3.18"/>
  <rect x="28.58" y="92.07" width="3.18" height="3.18"/>
  <rect x="25.4" y="88.9" width="3.18" height="3.18"/>
  <rect x="47.62" y="85.72" width="3.18" height="3.18"/>
  <rect x="44.45" y="82.55" width="3.18" height="3.18"/>
  <rect x="41.27" y="85.72" width="3.18" height="3.18"/>
  <rect x="38.1" y="82.55" width="3.18" height="3.18"/>
  <rect x="47.62" y="79.37" width="3.18" height="3.18"/>
  <rect x="44.45" y="76.2" width="3.18" height="3.18"/>
  <rect x="41.27" y="79.37" width="3.18" height="3.18"/>
  <rect x="38.1" y="76.2" width="3.18" height="3.18"/>
  <rect x="34.92" y="85.72" width="3.18" height="3.18"/>
  <rect x="31.75" y="82.55" width="3.18" height="3.18"/>
  <rect x="28.58" y="85.72" width="3.18" height="3.18"/>
  <rect x="25.4" y="82.55" width="3.18" height="3.18"/>
  <rect x="34.92" y="79.37" width="3.18" height="3.18"/>
  <rect x="31.75" y="76.2" width="3.18" height="3.18"/>
  <rect x="28.58" y="79.37" width="3.18" height="3.18"/>
  <rect x="25.4" y="76.2" width="3.18" height="3.18"/>
  <rect x="22.22" y="98.42" width="3.18" height="3.18"/>
  <rect x="19.05" y="95.25" width="3.18" height="3.18"/>
  <rect x="15.88" y="98.42" width="3.18" height="3.18"/>
  <rect x="12.7" y="95.25" width="3.18" height="3.18"/>
  <rect x="22.22" y="92.07" width="3.18" height="3.18"/>
  <rect x="19.05" y="88.9" width="3.18" height="3.18"/>
  <rect x="15.88" y="92.07" width="3.18" height="3.18"/>
  <rect x="12.7" y="88.9" width="3.18" height="3.18"/>
  <rect x="9.52" y="98.42" width="3.18" height="3.18"/>
  <rect x="6.35" y="95.25" width="3.18" height="3.18"/>
  <rect x="3.18" y="98.42" width="3.18" height="3.18"/>
  <rect x="0" y="95.25" width="3.18" height="3.18"/>
  <rect x="9.52" y="92.07" width="3.18" height="3.18"/>
  <rect x="6.35" y="88.9" width="3.18" height="3.18"/>
  <rect x="3.18" y="92.07" width="3.18" height="3.18"/>
  <rect x="0" y="88.9" width="3.18" height="3.18"/>
  <rect x="22.22" y="85.72" width="3.18" height="3.18"/>
  <rect x="19.05" y="82.55" width="3.18" height="3.18"/>
  <rect x="15.88" y="85.72" width="3.18" height="3.18"/>
  <rect x="12.7" y="82.55" width="3.18" height="3.18"/>
  <rect x="22.22" y="79.37" width="3.18" height="3.18"/>
  <rect x="19.05" y="76.2" width="3.18" height="3.18"/>
  <rect x="15.88" y="79.37" width="3.18" height="3.18"/>
  <rect x="12.7" y="76.2" width="3.18" height="3.18"/>
  <rect x="9.52" y="85.72" width="3.18" height="3.18"/>
  <rect x="6.35" y="82.55" width="3.18" height="3.18"/>
  <rect x="3.18" y="85.72" width="3.18" height="3.18"/>
  <rect x="0" y="82.55" width="3.18" height="3.18"/>
  <rect x="9.52" y="79.37" width="3.18" height="3.18"/>
  <rect x="6.35" y="76.2" width="3.18" height="3.18"/>
  <rect x="3.18" y="79.37" width="3.18" height="3.18"/>
  <rect x="0" y="76.2" width="3.18" height="3.18"/>
  <rect x="47.62" y="73.02" width="3.18" height="3.18"/>
  <rect x="44.45" y="69.85" width="3.18" height="3.18"/>
  <rect x="41.27" y="73.02" width="3.18" height="3.18"/>
  <rect x="38.1" y="69.85" width="3.18" height="3.18"/>
  <rect x="47.62" y="66.68" width="3.18" height="3.18"/>
  <rect x="44.45" y="63.5" width="3.18" height="3.18"/>
  <rect x="41.27" y="66.68" width="3.18" height="3.18"/>
  <rect x="38.1" y="63.5" width="3.18" height="3.18"/>
  <rect x="34.92" y="73.02" width="3.18" height="3.18"/>
  <rect x="31.75" y="69.85" width="3.18" height="3.18"/>
  <rect x="28.58" y="73.02" width="3.18" height="3.18"/>
  <rect x="25.4" y="69.85" width="3.18" height="3.18"/>
  <rect x="34.92" y="66.68" width="3.18" height="3.18"/>
  <rect x="31.75" y="63.5" width="3.18" height="3.18"/>
  <rect x="28.58" y="66.68" width="3.18" height="3.18"/>
  <rect x="25.4" y="63.5" width="3.18" height="3.18"/>
  <rect x="47.62" y="60.32" width="3.18" height="3.18"/>
  <rect x="44.45" y="57.15" width="3.18" height="3.18"/>
  <rect x="41.27" y="60.32" width="3.18" height="3.18"/>
  <rect x="38.1" y="57.15" width="3.18" height="3.18"/>
  <rect x="47.62" y="53.97" width="3.18" height="3.18"/>
  <rect x="44.45" y="50.8" width="3.18" height="3.18"/>
  <rect x="41.27" y="53.97" width="3.18" height="3.18"/>
  <rect x="38.1" y="50.8" width="3.18" height="3.18"/>
  <rect x="34.92" y="60.32" width="3.18" height="3.18"/>
  <rect x="31.75" y="57.15" width="3.18" height="3.18"/>
  <rect x="28.58" y="60.32" width="3.18" height="3.18"/>
  <rect x="25.4" y="57.15" width="3.18" height="3.18"/>
  <rect x="34.92" y="53.97" width="3.18" height="3.18"/>
  <rect x="31.75" y="50.8" width="3.18" height="3.18"/>
  <rect x="28.58" y="53.97" width="3.18" height="3.18"/>
  <rect x="25.4" y="50.8" width="3.18" height="3.18"/>
  <rect x="22.22" y="73.02" width="3.18" height="3.18"/>
  <rect x="19.05" y="69.85" width="3.18" height="3.18"/>
  <rect x="15.88" y="73.02" width="3.18" height="3.18"/>
  <rect x="12.7" y="69.85" width="3.18" height="3.18"/>
  <rect x="22.22" y="66.68" width="3.18" height="3.18"/>
  <rect x="19.05" y="63.5" width="3.18" height="3.18"/>
  <rect x="15.88" y="66.68" width="3.18" height="3.18"/>
  <rect x="12.7" y="63.5" width="3.18" height="3.18"/>
  <rect x="9.52" y="73.02" width="3.18" height="3.18"/>
  <rect x="6.35" y="69.85" width="3.18" height="3.18"/>
  <rect x="3.18" y="73.02" width="3.18" height="3.18"/>
  <rect x="0" y="69.85" width="3.18" height="3.18"/>
  <rect x="9.52" y="66.68" width="3.18" height="3.18"/>
  <rect x="6.35" y="63.5" width="3.18" height="3.18"/>
  <rect x="3.18" y="66.68" width="3.18" height="3.18"/>
  <rect x="0" y="63.5" width="3.18" height="3.18"/>
  <rect x="22.22" y="60.32" width="3.18" height="3.18"/>
  <rect x="19.05" y="57.15" width="3.18" height="3.18"/>
  <rect x="15.88" y="60.32" width="3.18" height="3.18"/>
  <rect x="12.7" y="57.15" width="3.18" height="3.18"/>
  <rect x="22.22" y="53.97" width="3.18" height="3.18"/>
  <rect x="19.05" y="50.8" width="3.18" height="3.18"/>
  <rect x="15.88" y="53.97" width="3.18" height="3.18"/>
  <rect x="12.7" y="50.8" width="3.18" height="3.18"/>
  <rect x="9.52" y="60.32" width="3.18" height="3.18"/>
  <rect x="6.35" y="57.15" width="3.18" height="3.18"/>
  <rect x="3.18" y="60.32" width="3.18" height="3.18"/>
  <rect x="0" y="57.15" width="3.18" height="3.18"/>
  <rect x="9.52" y="53.97" width="3.18" height="3.18"/>
  <rect x="6.35" y="50.8" width="3.18" height="3.18"/>
  <rect x="3.18" y="53.97" width="3.18" height="3.18"/>
  <rect x="0" y="50.8" width="3.18" height="3.18"/>
  <rect x="98.42" y="47.62" width="3.18" height="3.18"/>
  <rect x="95.25" y="44.45" width="3.18" height="3.18"/>
  <rect x="92.07" y="47.62" width="3.18" height="3.18"/>
  <rect x="88.9" y="44.45" width="3.18" height="3.18"/>
  <rect x="98.42" y="41.27" width="3.18" height="3.18"/>
  <rect x="95.25" y="38.1" width="3.18" height="3.18"/>
  <rect x="92.07" y="41.27" width="3.18" height="3.18"/>
  <rect x="88.9" y="38.1" width="3.18" height="3.18"/>
  <rect x="85.72" y="47.62" width="3.18" height="3.18"/>
  <rect x="82.55" y="44.45" width="3.18" height="3.18"/>
  <rect x="79.37" y="47.62" width="3.18" height="3.18"/>
  <rect x="76.2" y="44.45" width="3.18" height="3.18"/>
  <rect x="85.72" y="41.27" width="3.18" height="3.18"/>
  <rect x="82.55" y="38.1" width="3.18" height="3.18"/>
  <rect x="79.37" y="41.27" width="3.18" height="3.18"/>
  <rect x="76.2" y="38.1" width="3.18" height="3.18"/>
  <rect x="98.42" y="34.92" width="3.18" height="3.18"/>
  <rect x="95.25" y="31.75" width="3.18" height="3.18"/>
  <rect x="92.07" y="34.92" width="3.18" height="3.18"/>
  <rect x="88.9" y="31.75" width="3.18" height="3.18"/>
  <rect x="98.42" y="28.58" width="3.18" height="3.18"/>
  <rect x="95.25" y="25.4" width="3.18" height="3.18"/>
  <rect x="92.07" y="28.58" width="3.18" height="3.18"/>
  <rect x="88.9" y="25.4" width="3.18" height="3.18"/>
  <rect x="85.72" y="34.92" width="3.18" height="3.18"/>
  <rect x="82.55" y="31.75" width="3.18" height="3.18"/>
  <rect x="79.37" y="34.92" width="3.18" height="3.18"/>
  <rect x="76.2" y="31.75" width="3.18" height="3.18"/>
  <rect x="85.72" y="28.58" width="3.18" height="3.18"/>
  <rect x="82.55" y="25.4" width="3.18" height="3.18"/>
  <rect x="79.37" y="28.58" width="3.18" height="3.18"/>
  <rect x="76.2" y="25.4" width="3.18" height="3.18"/>
  <rect x="73.02" y="47.62" width="3.18" height="3.18"/>
  <rect x="69.85" y="44.45" width="3.18" height="3.18"/>
  <rect x="66.68" y="47.62" width="3.18" height="3.18"/>
  <rect x="63.5" y="44.45" width="3.18" height="3.18"/>
  <rect x="73.02" y="41.27" width="3.18" height="3.18"/>
  <rect x="69.85" y="38.1" width="3.18" height="3.18"/>
  <rect x="66.68" y="41.27" width="3.18" height="3.18"/>
  <rect x="63.5" y="38.1" width="3.18" height="3.18"/>
  <rect x="60.32" y="47.62" width="3.18" height="3.18"/>
  <rect x="57.15" y="44.45" width="3.18" height="3.18"/>
  <rect x="53.97" y="47.62" width="3.18" height="3.18"/>
  <rect x="50.8" y="44.45" width="3.18" height="3.18"/>
  <rect x="60.32" y="41.27" width="3.18" height="3.18"/>
  <rect x="57.15" y="38.1" width="3.18" height="3.18"/>
  <rect x="53.97" y="41.27" width="3.18" height="3.18"/>
  <rect x="50.8" y="38.1" width="3.18" height="3.18"/>
  <rect x="73.02" y="34.92" width="3.18" height="3.18"/>
  <rect x="69.85" y="31.75" width="3.18" height="3.18"/>
  <rect x="66.68" y="34.92" width="3.18" height="3.18"/>
  <rect x="63.5" y="31.75" width="3.18" height="3.18"/>
  <rect x="73.02" y="28.58" width="3.18" height="3.18"/>
  <rect x="69.85" y="25.4" width="3.18" height="3.18"/>
  <rect x="66.68" y="28.58" width="3.18" height="3.18"/>
  <rect x="63.5" y="25.4" width="3.18" height="3.18"/>
  <rect x="60.32" y="34.92" width="3.18" height="3.18"/>
  <rect x="57.15" y="31.75" width="3.18" height="3.18"/>
  <rect x="53.97" y="34.92" width="3.18" height="3.18"/>
  <rect x="50.8" y="31.75" width="3.18" height="3.18"/>
  <rect x="60.32" y="28.58" width="3.18" height="3.18"/>
  <rect x="57.15" y="25.4" width="3.18" height="3.18"/>
  <rect x="53.97" y="28.58" width="3.18" height="3.18"/>
  <rect x="50.8" y="25.4" width="3.18" height="3.18"/>
  <rect x="98.42" y="22.22" width="3.18" height="3.18"/>
  <rect x="95.25" y="19.05" width="3.18" height="3.18"/>
  <rect x="92.07" y="22.22" width="3.18" height="3.18"/>
  <rect x="88.9" y="19.05" width="3.18" height="3.18"/>
  <rect x="98.42" y="15.88" width="3.18" height="3.18"/>
  <rect x="95.25" y="12.7" width="3.18" height="3.18"/>
  <rect x="92.07" y="15.88" width="3.18" height="3.18"/>
  <rect x="88.9" y="12.7" width="3.18" height="3.18"/>
  <rect x="85.72" y="22.22" width="3.18" height="3.18"/>
  <rect x="82.55" y="19.05" width="3.18" height="3.18"/>
  <rect x="79.37" y="22.22" width="3.18" height="3.18"/>
  <rect x="76.2" y="19.05" width="3.18" height="3.18"/>
  <rect x="85.72" y="15.88" width="3.18" height="3.18"/>
  <rect x="82.55" y="12.7" width="3.18" height="3.18"/>
  <rect x="79.37" y="15.88" width="3.18" height="3.18"/>
  <rect x="76.2" y="12.7" width="3.18" height="3.18"/>
  <rect x="98.42" y="9.52" width="3.18" height="3.18"/>
  <rect x="95.25" y="6.35" width="3.18" height="3.18"/>
  <rect x="92.07" y="9.52" width="3.18" height="3.18"/>
  <rect x="88.9" y="6.35" width="3.18" height="3.18"/>
  <rect x="98.42" y="3.18" width="3.18" height="3.18"/>
  <rect x="95.25" y="0" width="3.18" height="3.18"/>
  <rect x="92.07" y="3.18" width="3.18" height="3.18"/>
  <rect x="88.9" y="0" width="3.18" height="3.18"/>
  <rect x="85.72" y="9.52" width="3.18" height="3.18"/>
  <rect x="82.55" y="6.35" width="3.18" height="3.18"/>
  <rect x="79.37" y="9.52" width="3.18" height="3.18"/>
  <rect x="76.2" y="6.35" width="3.18" height="3.18"/>
  <rect x="85.72" y="3.18" width="3.18" height="3.18"/>
  <rect x="82.55" y="0" width="3.18" height="3.18"/>
  <rect x="79.37" y="3.18" width="3.18" height="3.18"/>
  <rect x="76.2" y="0" width="3.18" height="3.18"/>
  <rect x="73.02" y="22.22" width="3.18" height="3.18"/>
  <rect x="69.85" y="19.05" width="3.18" height="3.18"/>
  <rect x="66.68" y="22.22" width="3.18" height="3.18"/>
  <rect x="63.5" y="19.05" width="3.18" height="3.18"/>
  <rect x="73.02" y="15.88" width="3.18" height="3.18"/>
  <rect x="69.85" y="12.7" width="3.18" height="3.18"/>
  <rect x="66.68" y="15.88" width="3.18" height="3.18"/>
  <rect x="63.5" y="12.7" width="3.18" height="3.18"/>
  <rect x="60.32" y="22.22" width="3.18" height="3.18"/>
  <rect x="57.15" y="19.05" width="3.18" height="3.18"/>
  <rect x="53.97" y="22.22" width="3.18" height="3.18"/>
  <rect x="50.8" y="19.05" width="3.18" height="3.18"/>
  <rect x="60.32" y="15.88" width="3.18" height="3.18"/>
  <rect x="57.15" y="12.7" width="3.18" height="3.18"/>
  <rect x="53.97" y="15.88" width="3.18" height="3.18"/>
  <rect x="50.8" y="12.7" width="3.18" height="3.18"/>
  <rect x="73.02" y="9.52" width="3.18" height="3.18"/>
  <rect x="69.85" y="6.35" width="3.18" height="3.18"/>
  <rect x="66.68" y="9.52" width="3.18" height="3.18"/>
  <rect x="63.5" y="6.35" width="3.18" height="3.18"/>
  <rect x="73.02" y="3.18" width="3.18" height="3.18"/>
  <rect x="69.85" y="0" width="3.18" height="3.18"/>
  <rect x="66.68" y="3.18" width="3.18" height="3.18"/>
  <rect x="63.5" y="0" width="3.18" height="3.18"/>
  <rect x="60.32" y="9.52" width="3.18" height="3.18"/>
  <rect x="57.15" y="6.35" width="3.18" height="3.18"/>
  <rect x="53.97" y="9.52" width="3.18" height="3.18"/>
  <rect x="50.8" y="6.35" width="3.18" height="3.18"/>
  <rect x="60.32" y="3.18" width="3.18" height="3.18"/>
  <rect x="57.15" y="0" width="3.18" height="3.18"/>
  <rect x="53.97" y="3.18" width="3.18" height="3.18"/>
  <rect x="50.8" y="0" width="3.18" height="3.18"/>
  <rect x="47.62" y="47.62" width="3.18" height="3.18"/>
  <rect x="44.45" y="44.45" width="3.18" height="3.18"/>
  <rect x="41.27" y="47.62" width="3.18" height="3.18"/>
  <rect x="38.1" y="44.45" width="3.18" height="3.18"/>
  <rect x="47.62" y="41.27" width="3.18" height="3.18"/>
  <rect x="44.45" y="38.1" width="3.18" height="3.18"/>
  <rect x="41.27" y="41.27" width="3.18" height="3.18"/>
  <rect x="38.1" y="38.1" width="3.18" height="3.18"/>
  <rect x="34.92" y="47.62" width="3.18" height="3.18"/>
  <rect x="31.75" y="44.45" width="3.18" height="3.18"/>
  <rect x="28.58" y="47.62" width="3.18" height="3.18"/>
  <rect x="25.4" y="44.45" width="3.18" height="3.18"/>
  <rect x="34.92" y="41.27" width="3.18" height="3.18"/>
  <rect x="31.75" y="38.1" width="3.18" height="3.18"/>
  <rect x="28.58" y="41.27" width="3.18" height="3.18"/>
  <rect x="25.4" y="38.1" width="3.18" height="3.18"/>
  <rect x="47.62" y="34.92" width="3.18" height="3.18"/>
  <rect x="44.45" y="31.75" width="3.18" height="3.18"/>
  <rect x="41.27" y="34.92" width="3.18" height="3.18"/>
  <rect x="38.1" y="31.75" width="3.18" height="3.18"/>
  <rect x="47.62" y="28.58" width="3.18" height="3.18"/>
  <rect x="44.45" y="25.4" width="3.18" height="3.18"/>
  <rect x="41.27" y="28.58" width="3.18" height="3.18"/>
  <rect x="38.1" y="25.4" width="3.18" height="3.18"/>
  <rect x="34.92" y="34.92" width="3.18" height="3.18"/>
  <rect x="31.75" y="31.75" width="3.18" height="3.18"/>
  <rect x="28.58" y="34.92" width="3.18" height="3.18"/>
  <rect x="25.4" y="31.75" width="3.18" height="3.18"/>
  <rect x="34.92" y="28.58" width="3.18" height="3.18"/>
  <rect x="31.75" y="25.4" width="3.18" height="3.18"/>
  <rect x="28.58" y="28.58" width="3.18" height="3.18"/>
  <rect x="25.4" y="25.4" width="3.18" height="3.18"/>
  <rect x="22.22" y="47.62" width="3.18" height="3.18"/>
  <rect x="19.05" y="44.45" width="3.18" height="3.18"/>
  <rect x="15.88" y="47.62" width="3.18" height="3.18"/>
  <rect x="12.7" y="44.45" width="3.18" height="3.18"/>
  <rect x="22.22" y="41.27" width="3.18" height="3.18"/>
  <rect x="19.05" y="38.1" width="3.18" height="3.18"/>
  <rect x="15.88" y="41.27" width="3.18" height="3.18"/>
  <rect x="12.7" y="38.1" width="3.18" height="3.18"/>
  <rect x="9.52" y="47.62" width="3.18" height="3.18"/>
  <rect x="6.35" y="44.45" width="3.18" height="3.18"/>
  <rect x="3.18" y="47.62" width="3.18" height="3.18"/>
  <rect x="0" y="44.45" width="3.18" height="3.18"/>
  <rect x="9.52" y="41.27" width="3.18" height="3.18"/>
  <rect x="6.35" y="38.1" width="3.18" height="3.18"/>
  <rect x="3.18" y="41.27" width="3.18" height="3.18"/>
  <rect x="0" y="38.1" width="3.18" height="3.18"/>
  <rect x="22.22" y="34.92" width="3.18" height="3.18"/>
  <rect x="19.05" y="31.75" width="3.18" height="3.18"/>
  <rect x="15.88" y="34.92" width="3.18" height="3.18"/>
  <rect x="12.7" y="31.75" width="3.18" height="3.18"/>
  <rect x="22.22" y="28.58" width="3.18" height="3.18"/>
  <rect x="19.05" y="25.4" width="3.18" height="3.18"/>
  <rect x="15.88" y="28.58" width="3.18" height="3.18"/>
  <rect x="12.7" y="25.4" width="3.18" height="3.18"/>
  <rect x="9.52" y="34.92" width="3.18" height="3.18"/>
  <rect x="6.35" y="31.75" width="3.18" height="3.18"/>
  <rect x="3.18" y="34.92" width="3.18" height="3.18"/>
  <rect x="0" y="31.75" width="3.18" height="3.18"/>
  <rect x="9.52" y="28.58" width="3.18" height="3.18"/>
  <rect x="6.35" y="25.4" width="3.18" height="3.18"/>
  <rect x="3.18" y="28.58" width="3.18" height="3.18"/>
  <rect x="0" y="25.4" width="3.18" height="3.18"/>
  <rect x="47.62" y="22.22" width="3.18" height="3.18"/>
  <rect x="44.45" y="19.05" width="3.18" height="3.18"/>
  <rect x="41.27" y="22.22" width="3.18" height="3.18"/>
  <rect x="38.1" y="19.05" width="3.18" height="3.18"/>
  <rect x="47.62" y="15.88" width="3.18" height="3.18"/>
  <rect x="44.45" y="12.7" width="3.18" height="3.18"/>
  <rect x="41.27" y="15.88" width="3.18" height="3.18"/>
  <rect x="38.1" y="12.7" width="3.18" height="3.18"/>
  <rect x="34.92" y="22.22" width="3.18" height="3.18"/>
  <rect x="31.75" y="19.05" width="3.18" height="3.18"/>
  <rect x="28.58" y="22.22" width="3.18" height="3.18"/>
  <rect x="25.4" y="19.05" width="3.18" height="3.18"/>
  <rect x="34.92" y="15.88" width="3.18" height="3.18"/>
  <rect x="31.75" y="12.7" width="3.18" height="3.18"/>
  <rect x="28.58" y="15.88" width="3.18" height="3.18"/>
  <rect x="25.4" y="12.7" width="3.18" height="3.18"/>
  <rect x="47.62" y="9.52" width="3.18" height="3.18"/>
  <rect x="44.45" y="6.35" width="3.18" height="3.18"/>
  <rect x="41.27" y="9.52" width="3.18" height="3.18"/>
  <rect x="38.1" y="6.35" width="3.18" height="3.18"/>
  <rect x="47.62" y="3.18" width="3.18" height="3.18"/>
  <rect x="44.45" y="0" width="3.18" height="3.18"/>
  <rect x="41.27" y="3.18" width="3.18" height="3.18"/>
  <rect x="38.1" y="0" width="3.18" height="3.18"/>
  <rect x="34.92" y="9.52" width="3.18" height="3.18"/>
  <rect x="31.75" y="6.35" width="3.18" height="3.18"/>
  <rect x="28.58" y="9.52" width="3.18" height="3.18"/>
  <rect x="25.4" y="6.35" width="3.18" height="3.18"/>
  <rect x="34.92" y="3.18" width="3.18" height="3.18"/>
  <rect x="31.75" y="0" width="3.18" height="3.18"/>
  <rect x="28.58" y="3.18" width="3.18" height="3.18"/>
  <rect x="25.4" y="0" width="3.18" height="3.18"/>
  <rect x="22.22" y="22.22" width="3.18" height="3.18"/>
  <rect x="19.05" y="19.05" width="3.18" height="3.18"/>
  <rect x="15.88" y="22.22" width="3.18" height="3.18"/>
  <rect x="12.7" y="19.05" width="3.18" height="3.18"/>
  <rect x="22.22" y="15.88" width="3.18" height="3.18"/>
  <rect x="19.05" y="12.7" width="3.18" height="3.18"/>
  <rect x="15.88" y="15.88" width="3.18" height="3.18"/>
  <rect x="12.7" y="12.7" width="3.18" height="3.18"/>
  <rect x="9.52" y="22.22" width="3.18" height="3.18"/>
  <rect x="6.35" y="19.05" width="3.18" height="3.18"/>
  <rect x="3.18" y="22.22" width="3.18" height="3.18"/>
  <rect x="0" y="19.05" width="3.18" height="3.18"/>
  <rect x="9.52" y="15.88" width="3.18" height="3.18"/>
  <rect x="6.35" y="12.7" width="3.18" height="3.18"/>
  <rect x="3.18" y="15.88" width="3.18" height="3.18"/>
  <rect x="0" y="12.7" width="3.18" height="3.18"/>
  <rect x="22.22" y="9.52" width="3.18" height="3.18"/>
  <rect x="19.05" y="6.35" width="3.18" height="3.18"/>
  <rect x="15.88" y="9.52" width="3.18" height="3.18"/>
  <rect x="12.7" y="6.35" width="3.18" height="3.18"/>
  <rect x="22.22" y="3.18" width="3.18" height="3.18"/>
  <rect x="19.05" y="0" width="3.18" height="3.18"/>
  <rect x="15.88" y="3.18" width="3.18" height="3.18"/>
  <rect x="12.7" y="0" width="3.18" height="3.18"/>
  <rect x="9.52" y="9.52" width="3.18" height="3.18"/>
  <rect x="6.35" y="6.35" width="3.18" height="3.18"/>
  <rect x="3.18" y="9.52" width="3.18" height="3.18"/>
  <rect x="0" y="6.35" width="3.18" height="3.18"/>
  <rect x="9.52" y="3.18" width="3.18" height="3.18"/>
  <rect x="6.35" y="0" width="3.18" height="3.18"/>
  <rect x="3.18" y="3.18" width="3.18" height="3.18"/>
  <rect x="0" y="0" width="3.18" height="3.18"/>
</g>
</svg>
