<?xml version="1.0" encoding="UTF-8"?>
<svg xmlns="http://www.w3.org/2000/svg"
     xmlns:xlink="http://www.w3.org/1999/xlink"
     xmlns:gadfly="http://www.gadflyjl.org/ns"
     version="1.2"
     width="152.4mm" height="152.4mm" viewBox="0 0 152.4 152.4"
     stroke="none"
     fill="#000000"
     stroke-width="0.3"
     font-size="3.88"
>
<g fill="#000000" id="fig-8e582402ffe344e69be097788ceff758-element-1">
  <rect x="147.64" y="147.64" width="4.76" height="4.76"/>
  <rect x="142.87" y="142.87" width="4.76" height="4.76"/>
  <rect x="138.11" y="147.64" width="4.76" height="4.76"/>
  <rect x="133.35" y="142.87" width="4.76" height="4.76"/>
  <rect x="147.64" y="138.11" width="4.76" height="4.76"/>
  <rect x="142.87" y="133.35" width="4.76" height="4.76"/>
  <rect x="138.11" y="138.11" width="4.76" height="4.76"/>
  <rect x="133.35" y="133.35" width="4.76" height="4.76"/>
  <rect x="128.59" y="147.64" width="4.76" height="4.76"/>
  <rect x="123.82" y="142.87" width="4.76" height="4.76"/>
  <rect x="119.06" y="147.64" width="4.76" height="4.76"/>
  <rect x="114.3" y="142.87" width="4.76" height="4.76"/>
  <rect x="128.59" y="138.11" width="4.76" height="4.76"/>
  <rect x="123.82" y="133.35" width="4.76" height="4.76"/>
  <rect x="119.06" y="138.11" width="4.76" height="4.76"/>
  <rect x="114.3" y="133.35" width="4.76" height="4.76"/>
  <rect x="147.64" y="128.59" width="4.76" height="4.76"/>
  <rect x="142.87" y="123.82" width="4.76" height="4.76"/>
  <rect x="138.11" y="128.59" width="4.76" height="4.76"/>
  <rect x="133.35" y="123.82" width="4.76" height="4.76"/>
  <rect x="147.64" y="119.06" width="4.76" height="4.76"/>
  <rect x="142.87" y="114.3" width="4.76" height="4.76"/>
  <rect x="138.11" y="119.06" width="4.76" height="4.76"/>
  <rect x="133.35" y="114.3" width="4.76" height="4.76"/>
  <rect x="128.59" y="128.59" width="4.76" height="4.76"/>
  <rect x="123.82" y="123.82" width="4.76" height="4.76"/>
  <rect x="119.06" y="128.59" width="4.76" height="4.76"/>
  <rect x="114.3" y="123.82" width="4.76" height="4.76"/>
  <rect x="128.59" y="119.06" width="4.76" height="4.76"/>
  <rect x="123.82" y="114.3" width="4.76" height="4.76"/>
  <rect x="119.06" y="119.06" width="4.76" height="4.76"/>
  <rect x="114.3" y="114.3" width="4.76" height="4.76"/>
  <rect x="109.54" y="147.64" width="4.76" height="4.76"/>
  <rect x="104.77" y="142.87" width="4.76" height="4.76"/>
  <rect x="100.01" y="147.64" width="4.76" height="4.76"/>
  <rect x="95.25" y="142.87" width="4.76" height="4.76"/>
  <rect x="109.54" y="138.11" width="4.76" height="4.76"/>
  <rect x="104.77" y="133.35" width="4.76" height="4.76"/>
  <rect x="100.01" y="138.11" width="4.76" height="4.76"/>
  <rect x="95.25" y="133.35" width="4.76" height="4.76"/>
  <rect x="90.49" y="147.64" width="4.76" height="4.76"/>
  <rect x="85.73" y="142.87" width="4.76" height="4.76"/>
  <rect x="80.96" y="147.64" width="4.76" height="4.76"/>
  <rect x="76.2" y="142.87" width="4.76" height="4.76"/>
  <rect x="90.49" y="138.11" width="4.76" height="4.76"/>
  <rect x="85.73" y="133.35" width="4.76" height="4.76"/>
  <rect x="80.96" y="138.11" width="4.76" height="4.76"/>
  <rect x="76.2" y="133.35" width="4.76" height="4.76"/>
  <rect x="109.54" y="128.59" width="4.76" height="4.76"/>
  <rect x="104.77" y="123.82" width="4.76" height="4.76"/>
  <rect x="100.01" y="128.59" width="4.76" height="4.76"/>
  <rect x="95.25" y="123.82" width="4.76" height="4.76"/>
  <rect x="109.54" y="119.06" width="4.76" height="4.76"/>
  <rect x="104.77" y="114.3" width="4.76" height="4.76"/>
  <rect x="100.01" y="119.06" width="4.76" height="4.76"/>
  <rect x="95.25" y="114.3" width="4.76" height="4.76"/>
  <rect x="90.49" y="128.59" width="4.76" height="4.76"/>
  <rect x="85.73" y="123.82" width="4.76" height="4.76"/>
  <rect x="80.96" y="128.59" width="4.76" height="4.76"/>
  <rect x="76.2" y="123.82" width="4.76" height="4.76"/>
  <rect x="90.49" y="119.06" width="4.76" height="4.76"/>
  <rect x="85.73" y="114.3" width="4.76" height="4.76"/>
  <rect x="80.96" y="119.06" width="4.76" height="4.76"/>
  <rect x="76.2" y="114.3" width="4.76" height="4.76"/>
  <rect x="147.64" y="109.54" width="4.76" height="4.76"/>
  <rect x="142.87" y="104.77" width="4.76" height="4.76"/>
  <rect x="138.11" y="109.54" width="4.76" height="4.76"/>
  <rect x="133.35" y="104.77" width="4.76" height="4.76"/>
  <rect x="147.64" y="100.01" width="4.76" height="4.76"/>
  <rect x="142.87" y="95.25" width="4.76" height="4.76"/>
  <rect x="138.11" y="100.01" width="4.76" height="4.76"/>
  <rect x="133.35" y="95.25" width="4.76" height="4.76"/>
  <rect x="128.59" y="109.54" width="4.76" height="4.76"/>
  <rect x="123.82" y="104.77" width="4.76" height="4.76"/>
  <rect x="119.06" y="109.54" width="4.76" height="4.76"/>
  <rect x="114.3" y="104.77" width="4.76" height="4.76"/>
  <rect x="128.59" y="100.01" width="4.76" height="4.76"/>
  <rect x="123.82" y="95.25" width="4.76" height="4.76"/>
  <rect x="119.06" y="100.01" width="4.76" height="4.76"/>
  <rect x="114.3" y="95.25" width="4.76" height="4.76"/>
  <rect x="147.64" y="90.49" width="4.76" height="4.76"/>
  <rect x="142.87" y="85.73" width="4.76" height="4.76"/>
  <rect x="138.11" y="90.49" width="4.76" height="4.76"/>
  <rect x="133.35" y="85.73" width="4.76" height="4.76"/>
  <rect x="147.64" y="80.96" width="4.76" height="4.76"/>
  <rect x="142.87" y="76.2" width="4.76" height="4.76"/>
  <rect x="138.11" y="80.96" width="4.76" height="4.76"/>
  <rect x="133.35" y="76.2" width="4.76" height="4.76"/>
  <rect x="128.59" y="90.49" width="4.76" height="4.76"/>
  <rect x="123.82" y="85.73" width="4.76" height="4.76"/>
  <rect x="119.06" y="90.49" width="4.76" height="4.76"/>
  <rect x="114.3" y="85.73" width="4.76" height="4.76"/>
  <rect x="128.59" y="80.96" width="4.76" height="4.76"/>
  <rect x="123.82" y="76.2" width="4.76" height="4.76"/>
  <rect x="119.06" y="80.96" width="4.76" height="4.76"/>
  <rect x="114.3" y="76.2" width="4.76" height="4.76"/>
  <rect x="109.54" y="109.54" width="4.76" height="4.76"/>
  <rect x="104.77" y="104.77" width="4.76" height="4.76"/>
  <rect x="100.01" y="109.54" width="4.76" height="4.76"/>
  <rect x="95.25" y="104.77" width="4.76" height="4.76"/>
  <rect x="109.54" y="100.01" width="4.76" height="4.76"/>
  <rect x="104.77" y="95.25" width="4.76" height="4.76"/>
  <rect x="100.01" y="100.01" width="4.76" height="4.76"/>
  <rect x="95.25" y="95.25" width="4.76" height="4.76"/>
  <rect x="90.49" y="109.54" width="4.76" height="4.76"/>
  <rect x="85.73" y="104.77" width="4.76" height="4.76"/>
  <rect x="80.96" y="109.54" width="4.76" height="4.76"/>
  <rect x="76.2" y="104.77" width="4.76" height="4.76"/>
  <rect x="90.49" y="100.01" width="4.76" height="4.76"/>
  <rect x="85.73" y="95.25" width="4.76" height="4.76"/>
  <rect x="80.96" y="100.01" width="4.76" height="4.76"/>
  <rect x="76.2" y="95.25" width="4.76" height="4.76"/>
  <rect x="109.54" y="90.49" width="4.76" height="4.76"/>
  <rect x="104.77" y="85.73" width="4.76" height="4.76"/>
  <rect x="100.01" y="90.49" width="4.76" height="4.76"/>
  <rect x="95.25" y="85.73" width="4.76" height="4.76"/>
  <rect x="109.54" y="80.96" width="4.76" height="4.76"/>
  <rect x="104.77" y="76.2" width="4.76" height="4.76"/>
  <rect x="100.01" y="80.96" width="4.76" height="4.76"/>
  <rect x="95.25" y="76.2" width="4.76" height="4.76"/>
  <rect x="90.49" y="90.49" width="4.76" height="4.76"/>
  <rect x="85.73" y="85.73" width="4.76" height="4.76"/>
  <rect x="80.96" y="90.49" width="4.76" height="4.76"/>
  <rect x="76.2" y="85.73" width="4.76" height="4.76"/>
  <rect x="90.49" y="80.96" width="4.76" height="4.76"/>
  <rect x="85.73" y="76.2" width="4.76" height="4.76"/>
  <rect x="80.96" y="80.96" width="4.76" height="4.76"/>
  <rect x="76.2" y="76.2" width="4.76" height="4.76"/>
  <rect x="71.44" y="147.64" width="4.76" height="4.76"/>
  <rect x="66.67" y="142.87" width="4.76" height="4.76"/>
  <rect x="61.91" y="147.64" width="4.76" height="4.76"/>
  <rect x="57.15" y="142.87" width="4.76" height="4.76"/>
  <rect x="71.44" y="138.11" width="4.76" height="4.76"/>
  <rect x="66.67" y="133.35" width="4.76" height="4.76"/>
  <rect x="61.91" y="138.11" width="4.76" height="4.76"/>
  <rect x="57.15" y="133.35" width="4.76" height="4.76"/>
  <rect x="52.39" y="147.64" width="4.76" height="4.76"/>
  <rect x="47.62" y="142.87" width="4.76" height="4.76"/>
  <rect x="42.86" y="147.64" width="4.76" height="4.76"/>
  <rect x="38.1" y="142.87" width="4.76" height="4.76"/>
  <rect x="52.39" y="138.11" width="4.76" height="4.76"/>
  <rect x="47.62" y="133.35" width="4.76" height="4.76"/>
  <rect x="42.86" y="138.11" width="4.76" height="4.76"/>
  <rect x="38.1" y="133.35" width="4.76" height="4.76"/>
  <rect x="71.44" y="128.59" width="4.76" height="4.76"/>
  <rect x="66.67" y="123.82" width="4.76" height="4.76"/>
  <rect x="61.91" y="128.59" width="4.76" height="4.76"/>
  <rect x="57.15" y="123.82" width="4.76" height="4.76"/>
  <rect x="71.44" y="119.06" width="4.76" height="4.76"/>
  <rect x="66.67" y="114.3" width="4.76" height="4.76"/>
  <rect x="61.91" y="119.06" width="4.76" height="4.76"/>
  <rect x="57.15" y="114.3" width="4.76" height="4.76"/>
  <rect x="52.39" y="128.59" width="4.76" height="4.76"/>
  <rect x="47.62" y="123.82" width="4.76" height="4.76"/>
  <rect x="42.86" y="128.59" width="4.76" height="4.76"/>
  <rect x="38.1" y="123.82" width="4.76" height="4.76"/>
  <rect x="52.39" y="119.06" width="4.76" height="4.76"/>
  <rect x="47.62" y="114.3" width="4.76" height="4.76"/>
  <rect x="42.86" y="119.06" width="4.76" height="4.76"/>
  <rect x="38.1" y="114.3" width="4.76" height="4.76"/>
  <rect x="33.34" y="147.64" width="4.76" height="4.76"/>
  <rect x="28.57" y="142.87" width="4.76" height="4.76"/>
  <rect x="23.81" y="147.64" width="4.76" height="4.76"/>
  <rect x="19.05" y="142.87" width="4.76" height="4.76"/>
  <rect x="33.34" y="138.11" width="4.76" height="4.76"/>
  <rect x="28.57" y="133.35" width="4.76" height="4.76"/>
  <rect x="23.81" y="138.11" width="4.76" height="4.76"/>
  <rect x="19.05" y="133.35" width="4.76" height="4.76"/>
  <rect x="14.29" y="147.64" width="4.76" height="4.76"/>
  <rect x="9.52" y="142.87" width="4.76" height="4.76"/>
  <rect x="4.76" y="147.64" width="4.76" height="4.76"/>
  <rect x="0" y="142.87" width="4.76" height="4.76"/>
  <rect x="14.29" y="138.11" width="4.76" height="4.76"/>
  <rect x="9.52" y="133.35" width="4.76" height="4.76"/>
  <rect x="4.76" y="138.11" width="4.76" height="4.76"/>
  <rect x="0" y="133.35" width="4.76" height="4.76"/>
  <rect x="33.34" y="128.59" width="4.76" height="4.76"/>
  <rect x="28.57" y="123.82" width="4.76" height="4.76"/>
  <rect x="23.81" y="128.59" width="4.76" height="4.76"/>
  <rect x="19.05" y="123.82" width="4.76" height="4.76"/>
  <rect x="33.34" y="119.06" width="4.76" height="4.76"/>
  <rect x="28.57" y="114.3" width="4.76" height="4.76"/>
  <rect x="23.81" y="119.06" width="4.76" height="4.76"/>
  <rect x="19.05" y="114.3" width="4.76" height="4.76"/>
  <rect x="14.29" y="128.59" width="4.76" height="4.76"/>
  <rect x="9.52" y="123.82" width="4.76" height="4.76"/>
  <rect x="4.76" y="128.59" width="4.76" height="4.76"/>
  <rect x="0" y="123.82" width="4.76" height="4.76"/>
  <rect x="14.29" y="119.06" width="4.76" height="4.76"/>
  <rect x="9.52" y="114.3" width="4.76" height="4.76"/>
  <rect x="4.76" y="119.06" width="4.76" height="4.76"/>
  <rect x="0" y="114.3" width="4.76" height="4.76"/>
  <rect x="71.44" y="109.54" width="4.76" height="4.76"/>
  <rect x="66.67" y="104.77" width="4.76" height="4.76"/>
  <rect x="61.91" y="109.54" width="4.76" height="4.76"/>
  <rect x="57.15" y="104.77" width="4.76" height="4.76"/>
  <rect x="71.44" y="100.01" width="4.76" height="4.76"/>
  <rect x="66.67" y="95.25" width="4.76" height="4.76"/>
  <rect x="61.91" y="100.01" width="4.76" height="4.76"/>
  <rect x="57.15" y="95.25" width="4.76" height="4.76"/>
  <rect x="52.39" y="109.54" width="4.76" height="4.76"/>
  <rect x="47.62" y="104.77" width="4.76" height="4.76"/>
  <rect x="42.86" y="109.54" width="4.76" height="4.76"/>
  <rect x="38.1" y="104.77" width="4.76" height="4.76"/>
  <rect x="52.39" y="100.01" width="4.76" height="4.76"/>
  <rect x="47.62" y="95.25" width="4.76" height="4.76"/>
  <rect x="42.86" y="100.01" width="4.76" height="4.76"/>
  <rect x="38.1" y="95.25" width="4.76" height="4.76"/>
  <rect x="71.44" y="90.49" width="4.76" height="4.76"/>
  <rect x="66.67" y="85.73" width="4.76" height="4.76"/>
  <rect x="61.91" y="90.49" width="4.76" height="4.76"/>
  <rect x="57.15" y="85.73" width="4.76" height="4.76"/>
  <rect x="71.44" y="80.96" width="4.76" height="4.76"/>
  <rect x="66.67" y="76.2" width="4.76" height="4.76"/>
  <rect x="61.91" y="80.96" width="4.76" height="4.76"/>
  <rect x="57.15" y="76.2" width="4.76" height="4.76"/>
  <rect x="52.39" y="90.49" width="4.76" height="4.76"/>
  <rect x="47.62" y="85.73" width="4.76" height="4.76"/>
  <rect x="42.86" y="90.49" width="4.76" height="4.76"/>
  <rect x="38.1" y="85.73" width="4.76" height="4.76"/>
  <rect x="52.39" y="80.96" width="4.76" height="4.76"/>
  <rect x="47.62" y="76.2" width="4.76" height="4.76"/>
  <rect x="42.86" y="80.96" width="4.76" height="4.76"/>
  <rect x="38.1" y="76.2" width="4.76" height="4.76"/>
  <rect x="33.34" y="109.54" width="4.76" height="4.76"/>
  <rect x="28.57" y="104.77" width="4.76" height="4.76"/>
  <rect x="23.81" y="109.54" width="4.76" height="4.76"/>
  <rect x="19.05" y="104.77" width="4.76" height="4.76"/>
  <rect x="33.34" y="100.01" width="4.76" height="4.76"/>
  <rect x="28.57" y="95.25" width="4.76" height="4.76"/>
  <rect x="23.81" y="100.01" width="4.76" height="4.76"/>
  <rect x="19.05" y="95.25" width="4.76" height="4.76"/>
  <rect x="14.29" y="109.54" width="4.76" height="4.76"/>
  <rect x="9.52" y="104.77" width="4.76" height="4.76"/>
  <rect x="4.76" y="109.54" width="4.76" height="4.76"/>
  <rect x="0" y="104.77" width="4.76" height="4.76"/>
  <rect x="14.29" y="100.01" width="4.76" height="4.76"/>
  <rect x="9.52" y="95.25" width="4.76" height="4.76"/>
  <rect x="4.76" y="100.01" width="4.76" height="4.76"/>
  <rect x="0" y="95.25" width="4.76" height="4.76"/>
  <rect x="33.34" y="90.49" width="4.76" height="4.76"/>
  <rect x="28.57" y="85.73" width="4.76" height="4.76"/>
  <rect x="23.81" y="90.49" width="4.76" height="4.76"/>
  <rect x="19.05" y="85.73" width="4.76" height="4.76"/>
  <rect x="33.34" y="80.96" width="4.76" height="4.76"/>
  <rect x="28.57" y="76.2" width="4.76" height="4.76"/>
  <rect x="23.81" y="80.96" width="4.76" height="4.76"/>
  <rect x="19.05" y="76.2" width="4.76" height="4.76"/>
  <rect x="14.29" y="90.49" width="4.76" height="4.76"/>
  <rect x="9.52" y="85.73" width="4.76" height="4.76"/>
  <rect x="4.76" y="90.49" width="4.76" height="4.76"/>
  <rect x="0" y="85.73" width="4.76" height="4.76"/>
  <rect x="14.29" y="80.96" width="4.76" height="4.76"/>
  <rect x="9.52" y="76.2" width="4.76" height="4.76"/>
  <rect x="4.76" y="80.96" width="4.76" height="4.76"/>
  <rect x="0" y="76.2" width="4.76" height="4.76"/>
  <rect x="147.64" y="71.44" width="4.76" height="4.76"/>
  <rect x="142.87" y="66.67" width="4.76" height="4.76"/>
  <rect x="138.11" y="71.44" width="4.76" height="4.76"/>
  <rect x="133.35" y="66.67" width="4.76" height="4.76"/>
  <rect x="147.64" y="61.91" width="4.76" height="4.76"/>
  <rect x="142.87" y="57.15" width="4.76" height="4.76"/>
  <rect x="138.11" y="61.91" width="4.76" height="4.76"/>
  <rect x="133.35" y="57.15" width="4.76" height="4.76"/>
  <rect x="128.59" y="71.44" width="4.76" height="4.76"/>
  <rect x="123.82" y="66.67" width="4.76" height="4.76"/>
  <rect x="119.06" y="71.44" width="4.76" height="4.76"/>
  <rect x="114.3" y="66.67" width="4.76" height="4.76"/>
  <rect x="128.59" y="61.91" width="4.76" height="4.76"/>
  <rect x="123.82" y="57.15" width="4.76" height="4.76"/>
  <rect x="119.06" y="61.91" width="4.76" height="4.76"/>
  <rect x="114.3" y="57.15" width="4.76" height="4.76"/>
  <rect x="147.64" y="52.39" width="4.76" height="4.76"/>
  <rect x="142.87" y="47.62" width="4.76" height="4.76"/>
  <rect x="138.11" y="52.39" width="4.76" height="4.76"/>
  <rect x="133.35" y="47.62" width="4.76" height="4.76"/>
  <rect x="147.64" y="42.86" width="4.76" height="4.76"/>
  <rect x="142.87" y="38.1" width="4.76" height="4.76"/>
  <rect x="138.11" y="42.86" width="4.76" height="4.76"/>
  <rect x="133.35" y="38.1" width="4.76" height="4.76"/>
  <rect x="128.59" y="52.39" width="4.76" height="4.76"/>
  <rect x="123.82" y="47.62" width="4.76" height="4.76"/>
  <rect x="119.06" y="52.39" width="4.76" height="4.76"/>
  <rect x="114.3" y="47.62" width="4.76" height="4.76"/>
  <rect x="128.59" y="42.86" width="4.76" height="4.76"/>
  <rect x="123.82" y="38.1" width="4.76" height="4.76"/>
  <rect x="119.06" y="42.86" width="4.76" height="4.76"/>
  <rect x="114.3" y="38.1" width="4.76" height="4.76"/>
  <rect x="109.54" y="71.44" width="4.76" height="4.76"/>
  <rect x="104.77" y="66.67" width="4.76" height="4.76"/>
  <rect x="100.01" y="71.44" width="4.76" height="4.76"/>
  <rect x="95.25" y="66.67" width="4.76" height="4.76"/>
  <rect x="109.54" y="61.91" width="4.76" height="4.76"/>
  <rect x="104.77" y="57.15" width="4.76" height="4.76"/>
  <rect x="100.01" y="61.91" width="4.76" height="4.76"/>
  <rect x="95.25" y="57.15" width="4.76" height="4.76"/>
  <rect x="90.49" y="71.44" width="4.76" height="4.76"/>
  <rect x="85.73" y="66.67" width="4.76" height="4.76"/>
  <rect x="80.96" y="71.44" width="4.76" height="4.76"/>
  <rect x="76.2" y="66.67" width="4.76" height="4.76"/>
  <rect x="90.49" y="61.91" width="4.76" height="4.76"/>
  <rect x="85.73" y="57.15" width="4.76" height="4.76"/>
  <rect x="80.96" y="61.91" width="4.76" height="4.76"/>
  <rect x="76.2" y="57.15" width="4.76" height="4.76"/>
  <rect x="109.54" y="52.39" width="4.76" height="4.76"/>
  <rect x="104.77" y="47.62" width="4.76" height="4.76"/>
  <rect x="100.01" y="52.39" width="4.76" height="4.76"/>
  <rect x="95.25" y="47.62" width="4.76" height="4.76"/>
  <rect x="109.54" y="42.86" width="4.76" height="4.76"/>
  <rect x="104.77" y="38.1" width="4.76" height="4.76"/>
  <rect x="100.01" y="42.86" width="4.76" height="4.76"/>
  <rect x="95.25" y="38.1" width="4.76" height="4.76"/>
  <rect x="90.49" y="52.39" width="4.76" height="4.76"/>
  <rect x="85.73" y="47.62" width="4.76" height="4.76"/>
  <rect x="80.96" y="52.39" width="4.76" height="4.76"/>
  <rect x="76.2" y="47.62" width="4.76" height="4.76"/>
  <rect x="90.49" y="42.86" width="4.76" height="4.76"/>
  <rect x="85.73" y="38.1" width="4.76" height="4.76"/>
  <rect x="80.96" y="42.86" width="4.76" height="4.76"/>
  <rect x="76.2" y="38.1" width="4.76" height="4.76"/>
  <rect x="147.64" y="33.34" width="4.76" height="4.76"/>
  <rect x="142.87" y="28.57" width="4.76" height="4.76"/>
  <rect x="138.11" y="33.34" width="4.76" height="4.76"/>
  <rect x="133.35" y="28.57" width="4.76" height="4.76"/>
  <rect x="147.64" y="23.81" width="4.76" height="4.76"/>
  <rect x="142.87" y="19.05" width="4.76" height="4.76"/>
  <rect x="138.11" y="23.81" width="4.76" height="4.76"/>
  <rect x="133.35" y="19.05" width="4.76" height="4.76"/>
  <rect x="128.59" y="33.34" width="4.76" height="4.76"/>
  <rect x="123.82" y="28.57" width="4.76" height="4.76"/>
  <rect x="119.06" y="33.34" width="4.76" height="4.76"/>
  <rect x="114.3" y="28.57" width="4.76" height="4.76"/>
  <rect x="128.59" y="23.81" width="4.76" height="4.76"/>
  <rect x="123.82" y="19.05" width="4.76" height="4.76"/>
  <rect x="119.06" y="23.81" width="4.76" height="4.76"/>
  <rect x="114.3" y="19.05" width="4.76" height="4.76"/>
  <rect x="147.64" y="14.29" width="4.76" height="4.76"/>
  <rect x="142.87" y="9.52" width="4.76" height="4.76"/>
  <rect x="138.11" y="14.29" width="4.76" height="4.76"/>
  <rect x="133.35" y="9.52" width="4.76" height="4.76"/>
  <rect x="147.64" y="4.76" width="4.76" height="4.76"/>
  <rect x="142.87" y="0" width="4.76" height="4.76"/>
  <rect x="138.11" y="4.76" width="4.76" height="4.76"/>
  <rect x="133.35" y="0" width="4.76" height="4.76"/>
  <rect x="128.59" y="14.29" width="4.76" height="4.76"/>
  <rect x="123.82" y="9.52" width="4.76" height="4.76"/>
  <rect x="119.06" y="14.29" width="4.76" height="4.76"/>
  <rect x="114.3" y="9.52" width="4.76" height="4.76"/>
  <rect x="128.59" y="4.76" width="4.76" height="4.76"/>
  <rect x="123.82" y="0" width="4.76" height="4.76"/>
  <rect x="119.06" y="4.76" width="4.76" height="4.76"/>
  <rect x="114.3" y="0" width="4.76" height="4.76"/>
  <rect x="109.54" y="33.34" width="4.76" height="4.76"/>
  <rect x="104.77" y="28.57" width="4.76" height="4.76"/>
  <rect x="100.01" y="33.34" width="4.76" height="4.76"/>
  <rect x="95.25" y="28.57" width="4.76" height="4.76"/>
  <rect x="109.54" y="23.81" width="4.76" height="4.76"/>
  <rect x="104.77" y="19.05" width="4.76" height="4.76"/>
  <rect x="100.01" y="23.81" width="4.76" height="4.76"/>
  <rect x="95.25" y="19.05" width="4.76" height="4.76"/>
  <rect x="90.49" y="33.34" width="4.76" height="4.76"/>
  <rect x="85.73" y="28.57" width="4.76" height="4.76"/>
  <rect x="80.96" y="33.34" width="4.76" height="4.76"/>
  <rect x="76.2" y="28.57" width="4.76" height="4.76"/>
  <rect x="90.49" y="23.81" width="4.76" height="4.76"/>
  <rect x="85.73" y="19.05" width="4.76" height="4.76"/>
  <rect x="80.96" y="23.81" width="4.76" height="4.76"/>
  <rect x="76.2" y="19.05" width="4.76" height="4.76"/>
  <rect x="109.54" y="14.29" width="4.76" height="4.76"/>
  <rect x="104.77" y="9.52" width="4.76" height="4.76"/>
  <rect x="100.01" y="14.29" width="4.76" height="4.76"/>
  <rect x="95.25" y="9.52" width="4.76" height="4.76"/>
  <rect x="109.54" y="4.76" width="4.76" height="4.76"/>
  <rect x="104.77" y="0" width="4.76" height="4.76"/>
  <rect x="100.01" y="4.76" width="4.76" height="4.76"/>
  <rect x="95.25" y="0" width="4.76" height="4.76"/>
  <rect x="90.49" y="14.29" width="4.76" height="4.76"/>
  <rect x="85.73" y="9.52" width="4.76" height="4.76"/>
  <rect x="80.96" y="14.29" width="4.76" height="4.76"/>
  <rect x="76.2" y="9.52" width="4.76" height="4.76"/>
  <rect x="90.49" y="4.76" width="4.76" height="4.76"/>
  <rect x="85.73" y="0" width="4.76" height="4.76"/>
  <rect x="80.96" y="4.76" width="4.76" height="4.76"/>
  <rect x="76.2" y="0" width="4.76" height="4.76"/>
  <rect x="71.44" y="71.44" width="4.76" height="4.76"/>
  <rect x="66.67" y="66.67" width="4.76" height="4.76"/>
  <rect x="61.91" y="71.44" width="4.76" height="4.76"/>
  <rect x="57.15" y="66.67" width="4.76" height="4.76"/>
  <rect x="71.44" y="61.91" width="4.76" height="4.76"/>
  <rect x="66.67" y="57.15" width="4.76" height="4.76"/>
  <rect x="61.91" y="61.91" width="4.76" height="4.76"/>
  <rect x="57.15" y="57.15" width="4.76" height="4.76"/>
  <rect x="52.39" y="71.44" width="4.76" height="4.76"/>
  <rect x="47.62" y="66.67" width="4.76" height="4.76"/>
  <rect x="42.86" y="71.44" width="4.76" height="4.76"/>
  <rect x="38.1" y="66.67" width="4.76" height="4.76"/>
  <rect x="52.39" y="61.91" width="4.76" height="4.76"/>
  <rect x="47.62" y="57.15" width="4.76" height="4.76"/>
  <rect x="42.86" y="61.91" width="4.76" height="4.76"/>
  <rect x="38.1" y="57.15" width="4.76" height="4.76"/>
  <rect x="71.44" y="52.39" width="4.76" height="4.76"/>
  <rect x="66.67" y="47.62" width="4.76" height="4.76"/>
  <rect x="61.91" y="52.39" width="4.76" height="4.76"/>
  <rect x="57.15" y="47.62" width="4.76" height="4.76"/>
  <rect x="71.44" y="42.86" width="4.76" height="4.76"/>
  <rect x="66.67" y="38.1" width="4.76" height="4.76"/>
  <rect x="61.91" y="42.86" width="4.76" height="4.76"/>
  <rect x="57.15" y="38.1" width="4.76" height="4.76"/>
  <rect x="52.39" y="52.39" width="4.76" height="4.76"/>
  <rect x="47.62" y="47.62" width="4.76" height="4.76"/>
  <rect x="42.86" y="52.39" width="4.76" height="4.76"/>
  <rect x="38.1" y="47.62" width="4.76" height="4.76"/>
  <rect x="52.39" y="42.86" width="4.76" height="4.76"/>
  <rect x="47.62" y="38.1" width="4.76" height="4.76"/>
  <rect x="42.86" y="42.86" width="4.76" height="4.76"/>
  <rect x="38.1" y="38.1" width="4.76" height="4.76"/>
  <rect x="33.34" y="71.44" width="4.76" height="4.76"/>
  <rect x="28.57" y="66.67" width="4.76" height="4.76"/>
  <rect x="23.81" y="71.44" width="4.76" height="4.76"/>
  <rect x="19.05" y="66.67" width="4.76" height="4.76"/>
  <rect x="33.34" y="61.91" width="4.76" height="4.76"/>
  <rect x="28.57" y="57.15" width="4.76" height="4.76"/>
  <rect x="23.81" y="61.91" width="4.76" height="4.76"/>
  <rect x="19.05" y="57.15" width="4.76" height="4.76"/>
  <rect x="14.29" y="71.44" width="4.76" height="4.76"/>
  <rect x="9.52" y="66.67" width="4.76" height="4.76"/>
  <rect x="4.76" y="71.44" width="4.76" height="4.76"/>
  <rect x="0" y="66.67" width="4.76" height="4.76"/>
  <rect x="14.29" y="61.91" width="4.76" height="4.76"/>
  <rect x="9.52" y="57.15" width="4.76" height="4.76"/>
  <rect x="4.76" y="61.91" width="4.76" height="4.76"/>
  <rect x="0" y="57.15" width="4.76" height="4.76"/>
  <rect x="33.34" y="52.39" width="4.76" height="4.76"/>
  <rect x="28.57" y="47.62" width="4.76" height="4.76"/>
  <rect x="23.81" y="52.39" width="4.76" height="4.76"/>
  <rect x="19.05" y="47.62" width="4.76" height="4.76"/>
  <rect x="33.34" y="42.86" width="4.76" height="4.76"/>
  <rect x="28.57" y="38.1" width="4.76" height="4.76"/>
  <rect x="23.81" y="42.86" width="4.76" height="4.76"/>
  <rect x="19.05" y="38.1" width="4.76" height="4.76"/>
  <rect x="14.29" y="52.39" width="4.76" height="4.76"/>
  <rect x="9.52" y="47.62" width="4.76" height="4.76"/>
  <rect x="4.76" y="52.39" width="4.76" height="4.76"/>
  <rect x="0" y="47.62" width="4.76" height="4.76"/>
  <rect x="14.29" y="42.86" width="4.76" height="4.76"/>
  <rect x="9.52" y="38.1" width="4.76" height="4.76"/>
  <rect x="4.76" y="42.86" width="4.76" height="4.76"/>
  <rect x="0" y="38.1" width="4.76" height="4.76"/>
  <rect x="71.44" y="33.34" width="4.76" height="4.76"/>
  <rect x="66.67" y="28.57" width="4.76" height="4.76"/>
  <rect x="61.91" y="33.34" width="4.76" height="4.76"/>
  <rect x="57.15" y="28.57" width="4.76" height="4.76"/>
  <rect x="71.44" y="23.81" width="4.76" height="4.76"/>
  <rect x="66.67" y="19.05" width="4.76" height="4.76"/>
  <rect x="61.91" y="23.81" width="4.76" height="4.76"/>
  <rect x="57.15" y="19.05" width="4.76" height="4.76"/>
  <rect x="52.39" y="33.34" width="4.76" height="4.76"/>
  <rect x="47.62" y="28.57" width="4.76" height="4.76"/>
  <rect x="42.86" y="33.34" width="4.76" height="4.76"/>
  <rect x="38.1" y="28.57" width="4.76" height="4.76"/>
  <rect x="52.39" y="23.81" width="4.76" height="4.76"/>
  <rect x="47.62" y="19.05" width="4.76" height="4.76"/>
  <rect x="42.86" y="23.81" width="4.76" height="4.76"/>
  <rect x="38.1" y="19.05" width="4.76" height="4.76"/>
  <rect x="71.44" y="14.29" width="4.76" height="4.76"/>
  <rect x="66.67" y="9.52" width="4.76" height="4.76"/>
  <rect x="61.91" y="14.29" width="4.76" height="4.76"/>
  <rect x="57.15" y="9.52" width="4.76" height="4.76"/>
  <rect x="71.44" y="4.76" width="4.76" height="4.76"/>
  <rect x="66.67" y="0" width="4.76" height="4.76"/>
  <rect x="61.91" y="4.76" width="4.76" height="4.76"/>
  <rect x="57.15" y="0" width="4.76" height="4.76"/>
  <rect x="52.39" y="14.29" width="4.76" height="4.76"/>
  <rect x="47.62" y="9.52" width="4.76" height="4.76"/>
  <rect x="42.86" y="14.29" width="4.76" height="4.76"/>
  <rect x="38.1" y="9.52" width="4.76" height="4.76"/>
  <rect x="52.39" y="4.76" width="4.76" height="4.76"/>
  <rect x="47.62" y="0" width="4.76" height="4.76"/>
  <rect x="42.86" y="4.76" width="4.76" height="4.76"/>
  <rect x="38.1" y="0" width="4.76" height="4.76"/>
  <rect x="33.34" y="33.34" width="4.76" height="4.76"/>
  <rect x="28.57" y="28.57" width="4.76" height="4.76"/>
  <rect x="23.81" y="33.34" width="4.76" height="4.76"/>
  <rect x="19.05" y="28.57" width="4.76" height="4.76"/>
  <rect x="33.34" y="23.81" width="4.76" height="4.76"/>
  <rect x="28.57" y="19.05" width="4.76" height="4.76"/>
  <rect x="23.81" y="23.81" width="4.76" height="4.76"/>
  <rect x="19.05" y="19.05" width="4.76" height="4.76"/>
  <rect x="14.29" y="33.34" width="4.76" height="4.76"/>
  <rect x="9.52" y="28.57" width="4.76" height="4.76"/>
  <rect x="4.76" y="33.34" width="4.76" height="4.76"/>
  <rect x="0" y="28.57" width="4.76" height="4.76"/>
  <rect x="14.29" y="23.81" width="4.76" height="4.76"/>
  <rect x="9.52" y="19.05" width="4.76" height="4.76"/>
  <rect x="4.76" y="23.81" width="4.76" height="4.76"/>
  <rect x="0" y="19.05" width="4.76" height="4.76"/>
  <rect x="33.34" y="14.29" width="4.76" height="4.76"/>
  <rect x="28.57" y="9.52" width="4.76" height="4.76"/>
  <rect x="23.81" y="14.29" width="4.76" height="4.76"/>
  <rect x="19.05" y="9.52" width="4.76" height="4.76"/>
  <rect x="33.34" y="4.76" width="4.76" height="4.76"/>
  <rect x="28.57" y="0" width="4.76" height="4.76"/>
  <rect x="23.81" y="4.76" width="4.76" height="4.76"/>
  <rect x="19.05" y="0" width="4.76" height="4.76"/>
  <rect x="14.29" y="14.29" width="4.76" height="4.76"/>
  <rect x="9.52" y="9.52" width="4.76" height="4.76"/>
  <rect x="4.76" y="14.29" width="4.76" height="4.76"/>
  <rect x="0" y="9.52" width="4.76" height="4.76"/>
  <rect x="14.29" y="4.76" width="4.76" height="4.76"/>
  <rect x="9.52" y="0" width="4.76" height="4.76"/>
  <rect x="4.76" y="4.76" width="4.76" height="4.76"/>
  <rect x="0" y="0" width="4.76" height="4.76"/>
</g>
</svg>
