<?xml version="1.0" encoding="UTF-8"?>
<svg xmlns="http://www.w3.org/2000/svg"
     xmlns:xlink="http://www.w3.org/1999/xlink"
     xmlns:gadfly="http://www.gadflyjl.org/ns"
     version="1.2"
     width="101.6mm" height="101.6mm" viewBox="0 0 101.6 101.6"
     stroke="none"
     fill="#000000"
     stroke-width="0.3"
     font-size="3.88"
>
<g fill="#000000" id="fig-35bd9648dd7c4ace92bf8907b3499757-element-1">
  <rect x="88.9" y="88.9" width="12.7" height="12.7"/>
  <rect x="76.2" y="76.2" width="12.7" height="12.7"/>
  <rect x="63.5" y="88.9" width="12.7" height="12.7"/>
  <rect x="50.8" y="76.2" width="12.7" height="12.7"/>
  <rect x="88.9" y="63.5" width="12.7" height="12.7"/>
  <rect x="76.2" y="50.8" width="12.7" height="12.7"/>
  <rect x="63.5" y="63.5" width="12.7" height="12.7"/>
  <rect x="50.8" y="50.8" width="12.7" height="12.7"/>
  <rect x="38.1" y="88.9" width="12.7" height="12.7"/>
  <rect x="25.4" y="76.2" width="12.7" height="12.7"/>
  <rect x="12.7" y="88.9" width="12.7" height="12.7"/>
  <rect x="0" y="76.2" width="12.7" height="12.7"/>
  <rect x="38.1" y="63.5" width="12.7" height="12.7"/>
  <rect x="25.4" y="50.8" width="12.7" height="12.7"/>
  <rect x="12.7" y="63.5" width="12.7" height="12.7"/>
  <rect x="0" y="50.8" width="12.7" height="12.7"/>
  <rect x="88.9" y="38.1" width="12.7" height="12.7"/>
  <rect x="76.2" y="25.4" width="12.7" height="12.7"/>
  <rect x="63.5" y="38.1" width="12.7" height="12.7"/>
  <rect x="50.8" y="25.4" width="12.7" height="12.7"/>
  <rect x="88.9" y="12.7" width="12.7" height="12.7"/>
  <rect x="76.2" y="0" width="12.7" height="12.7"/>
  <rect x="63.5" y="12.7" width="12.7" height="12.7"/>
  <rect x="50.8" y="0" width="12.7" height="12.7"/>
  <rect x="38.1" y="38.1" width="12.7" height="12.7"/>
  <rect x="25.4" y="25.4" width="12.7" height="12.7"/>
  <rect x="12.7" y="38.1" width="12.7" height="12.7"/>
  <rect x="0" y="25.4" width="12.7" height="12.7"/>
  <rect x="38.1" y="12.7" width="12.7" height="12.7"/>
  <rect x="25.4" y="0" width="12.7" height="12.7"/>
  <rect x="12.7" y="12.7" width="12.7" height="12.7"/>
  <rect x="0" y="0" width="12.7" height="12.7"/>
</g>
</svg>
