<?xml version="1.0" encoding="UTF-8"?>
<svg xmlns="http://www.w3.org/2000/svg"
     xmlns:xlink="http://www.w3.org/1999/xlink"
     xmlns:gadfly="http://www.gadflyjl.org/ns"
     version="1.2"
     width="152.4mm" height="152.4mm" viewBox="0 0 152.4 152.4"
     stroke="none"
     fill="#000000"
     stroke-width="0.3"
     font-size="3.88"
>
<g fill="#000000" id="fig-cc0ad9a34d9447089dfec52fd19aba34-element-1">
  <rect x="133.35" y="133.35" width="19.05" height="19.05"/>
  <rect x="114.3" y="114.3" width="19.05" height="19.05"/>
  <rect x="95.25" y="133.35" width="19.05" height="19.05"/>
  <rect x="76.2" y="114.3" width="19.05" height="19.05"/>
  <rect x="133.35" y="95.25" width="19.05" height="19.05"/>
  <rect x="114.3" y="76.2" width="19.05" height="19.05"/>
  <rect x="95.25" y="95.25" width="19.05" height="19.05"/>
  <rect x="76.2" y="76.2" width="19.05" height="19.05"/>
  <rect x="57.15" y="133.35" width="19.05" height="19.05"/>
  <rect x="38.1" y="114.3" width="19.05" height="19.05"/>
  <rect x="19.05" y="133.35" width="19.05" height="19.05"/>
  <rect x="0" y="114.3" width="19.05" height="19.05"/>
  <rect x="57.15" y="95.25" width="19.05" height="19.05"/>
  <rect x="38.1" y="76.2" width="19.05" height="19.05"/>
  <rect x="19.05" y="95.25" width="19.05" height="19.05"/>
  <rect x="0" y="76.2" width="19.05" height="19.05"/>
  <rect x="133.35" y="57.15" width="19.05" height="19.05"/>
  <rect x="114.3" y="38.1" width="19.05" height="19.05"/>
  <rect x="95.25" y="57.15" width="19.05" height="19.05"/>
  <rect x="76.2" y="38.1" width="19.05" height="19.05"/>
  <rect x="133.35" y="19.05" width="19.05" height="19.05"/>
  <rect x="114.3" y="0" width="19.05" height="19.05"/>
  <rect x="95.25" y="19.05" width="19.05" height="19.05"/>
  <rect x="76.2" y="0" width="19.05" height="19.05"/>
  <rect x="57.15" y="57.15" width="19.05" height="19.05"/>
  <rect x="38.1" y="38.1" width="19.05" height="19.05"/>
  <rect x="19.05" y="57.15" width="19.05" height="19.05"/>
  <rect x="0" y="38.1" width="19.05" height="19.05"/>
  <rect x="57.15" y="19.05" width="19.05" height="19.05"/>
  <rect x="38.1" y="0" width="19.05" height="19.05"/>
  <rect x="19.05" y="19.05" width="19.05" height="19.05"/>
  <rect x="0" y="0" width="19.05" height="19.05"/>
</g>
</svg>
